<?xml version="1.0" encoding="utf-8"?>
<!-- Generator: Adobe Illustrator 17.0.0, SVG Export Plug-In . SVG Version: 6.00 Build 0)  -->
<!DOCTYPE svg PUBLIC "-//W3C//DTD SVG 1.1//EN" "http://www.w3.org/Graphics/SVG/1.1/DTD/svg11.dtd">
<svg version="1.1" id="Layer_1" xmlns="http://www.w3.org/2000/svg" xmlns:xlink="http://www.w3.org/1999/xlink" x="0px" y="0px"
	 width="790.102px" height="242.718px" viewBox="564.864 418.324 790.102 242.718"
	 enable-background="new 564.864 418.324 790.102 242.718" xml:space="preserve">
<path fill="#EF7380" d="M680.504,436.39h-24.975v-5.46c0-6.951-5.655-12.606-12.606-12.606h-27.629
	c-6.951,0-12.606,5.655-12.606,12.606v5.46h-24.975c-7.096,0-12.849,5.753-12.849,12.849v61.674c0,7.096,5.753,12.849,12.849,12.849
	h102.79c7.096,0,12.849-5.753,12.849-12.849v-61.674C693.353,442.143,687.6,436.39,680.504,436.39z M610.073,430.93
	c0-2.879,2.342-5.221,5.221-5.221h27.629c2.879,0,5.221,2.342,5.221,5.221v5.46h-38.071L610.073,430.93L610.073,430.93z"/>
<path fill="#EF7380" d="M1176.715,436.39h-24.975v-5.46c0-6.951-5.655-12.606-12.606-12.606h-27.629
	c-6.951,0-12.606,5.655-12.606,12.606v5.46h-24.975c-7.096,0-12.849,5.753-12.849,12.849v61.674c0,7.096,5.753,12.849,12.849,12.849
	h102.79c7.096,0,12.849-5.753,12.849-12.849v-61.674C1189.563,442.143,1183.811,436.39,1176.715,436.39z M1106.284,430.93
	c0-2.879,2.342-5.221,5.221-5.221h27.629c2.879,0,5.221,2.342,5.221,5.221v5.46h-38.071L1106.284,430.93L1106.284,430.93z"/>
<path fill="#EF7380" d="M1011.311,436.39h-24.975v-5.46c0-6.951-5.655-12.606-12.606-12.606h-27.629
	c-6.951,0-12.606,5.655-12.606,12.606v5.46H908.52c-7.096,0-12.849,5.753-12.849,12.849v61.674c0,7.096,5.753,12.849,12.849,12.849
	h102.79c7.096,0,12.849-5.753,12.849-12.849v-61.674C1024.16,442.143,1018.407,436.39,1011.311,436.39z M940.881,430.93
	c0-2.879,2.342-5.221,5.221-5.221h27.629c2.879,0,5.221,2.342,5.221,5.221v5.46h-38.071L940.881,430.93L940.881,430.93z"/>
<path fill="#EF7380" d="M845.908,436.39h-24.975v-5.46c0-6.951-5.655-12.606-12.606-12.606h-27.629
	c-6.951,0-12.606,5.655-12.606,12.606v5.46h-24.975c-7.096,0-12.849,5.753-12.849,12.849v61.674c0,7.096,5.753,12.849,12.849,12.849
	h102.79c7.096,0,12.849-5.753,12.849-12.849v-61.674C858.756,442.143,853.004,436.39,845.908,436.39z M775.477,430.93
	c0-2.879,2.342-5.221,5.221-5.221h27.629c2.879,0,5.221,2.342,5.221,5.221v5.46h-38.071L775.477,430.93L775.477,430.93z"/>
<path fill="#EF7380" d="M1342.118,436.39h-24.975v-5.46c0-6.951-5.655-12.606-12.606-12.606h-27.629
	c-6.951,0-12.606,5.655-12.606,12.606v5.46h-24.975c-7.096,0-12.849,5.753-12.849,12.849v61.674c0,7.096,5.753,12.849,12.849,12.849
	h102.79c7.096,0,12.849-5.753,12.849-12.849v-61.674C1354.967,442.143,1349.214,436.39,1342.118,436.39z M1271.688,430.93
	c0-2.879,2.342-5.221,5.221-5.221h27.629c2.879,0,5.221,2.342,5.221,5.221v5.46h-38.071L1271.688,430.93L1271.688,430.93z"/>
<path fill="#EF7380" d="M680.504,573.67h-24.975v-5.46c0-6.951-5.655-12.606-12.606-12.606h-27.629
	c-6.951,0-12.606,5.655-12.606,12.606v5.46h-24.975c-7.096,0-12.849,5.753-12.849,12.849v61.674c0,7.096,5.753,12.849,12.849,12.849
	h102.79c7.096,0,12.849-5.753,12.849-12.849v-61.674C693.353,579.423,687.6,573.67,680.504,573.67z M610.073,568.21
	c0-2.879,2.342-5.221,5.221-5.221h27.629c2.879,0,5.221,2.342,5.221,5.221v5.46h-38.071L610.073,568.21L610.073,568.21z"/>
<path fill="#7DC184" d="M1176.715,573.67h-24.975v-5.46c0-6.951-5.655-12.606-12.606-12.606h-27.629
	c-6.951,0-12.606,5.655-12.606,12.606v5.46h-24.975c-7.096,0-12.849,5.753-12.849,12.849v61.674c0,7.096,5.753,12.849,12.849,12.849
	h102.79c7.096,0,12.849-5.753,12.849-12.849v-61.674C1189.563,579.423,1183.811,573.67,1176.715,573.67z M1106.284,568.21
	c0-2.879,2.342-5.221,5.221-5.221h27.629c2.879,0,5.221,2.342,5.221,5.221v5.46h-38.071L1106.284,568.21L1106.284,568.21z"/>
<path fill="#EF7380" d="M1011.311,573.67h-24.975v-5.46c0-6.951-5.655-12.606-12.606-12.606h-27.629
	c-6.951,0-12.606,5.655-12.606,12.606v5.46H908.52c-7.096,0-12.849,5.753-12.849,12.849v61.674c0,7.096,5.753,12.849,12.849,12.849
	h102.79c7.096,0,12.849-5.753,12.849-12.849v-61.674C1024.16,579.423,1018.407,573.67,1011.311,573.67z M940.881,568.21
	c0-2.879,2.342-5.221,5.221-5.221h27.629c2.879,0,5.221,2.342,5.221,5.221v5.46h-38.071L940.881,568.21L940.881,568.21z"/>
<path fill="#EF7380" d="M845.908,573.67h-24.975v-5.46c0-6.951-5.655-12.606-12.606-12.606h-27.629
	c-6.951,0-12.606,5.655-12.606,12.606v5.46h-24.975c-7.096,0-12.849,5.753-12.849,12.849v61.674c0,7.096,5.753,12.849,12.849,12.849
	h102.79c7.096,0,12.849-5.753,12.849-12.849v-61.674C858.756,579.423,853.004,573.67,845.908,573.67z M775.477,568.21
	c0-2.879,2.342-5.221,5.221-5.221h27.629c2.879,0,5.221,2.342,5.221,5.221v5.46h-38.071L775.477,568.21L775.477,568.21z"/>
<path fill="#7DC184" d="M1342.118,573.67h-24.975v-5.46c0-6.951-5.655-12.606-12.606-12.606h-27.629
	c-6.951,0-12.606,5.655-12.606,12.606v5.46h-24.975c-7.096,0-12.849,5.753-12.849,12.849v61.674c0,7.096,5.753,12.849,12.849,12.849
	h102.79c7.096,0,12.849-5.753,12.849-12.849v-61.674C1354.967,579.423,1349.214,573.67,1342.118,573.67z M1271.688,568.21
	c0-2.879,2.342-5.221,5.221-5.221h27.629c2.879,0,5.221,2.342,5.221,5.221v5.46h-38.071L1271.688,568.21L1271.688,568.21z"/>
</svg>
