<?xml version="1.0" encoding="utf-8"?>
<!-- Generator: Adobe Illustrator 17.0.0, SVG Export Plug-In . SVG Version: 6.00 Build 0)  -->
<!DOCTYPE svg PUBLIC "-//W3C//DTD SVG 1.1//EN" "http://www.w3.org/Graphics/SVG/1.1/DTD/svg11.dtd">
<svg version="1.1" id="Layer_1" xmlns="http://www.w3.org/2000/svg" xmlns:xlink="http://www.w3.org/1999/xlink" x="0px" y="0px"
	 width="372.022px" height="313.349px" viewBox="774.95 383.294 372.022 313.349"
	 enable-background="new 774.95 383.294 372.022 313.349" xml:space="preserve">
<g>
	<path fill="#333053" d="M1058.059,696.642c-84.077,0-168.154,0-252.231,0c-0.248-0.333-0.496-0.524-0.744,0
		c-0.248,0-0.496,0-0.744,0c-0.107-1.024-1.019-0.725-1.572-0.873c-14.49-3.877-23.467-13.125-27.061-27.657
		c-0.116-0.47,0.131-1.215-0.756-1.231c0-0.248,0-0.496,0-0.744c0.518-0.248,0.345-0.496,0-0.744c0-83.705,0-167.41,0-251.115
		c0.303-0.124,0.377-0.248,0-0.372c0-0.372,0-0.744,0-1.116c0.892-0.005,0.646-0.754,0.762-1.221
		c3.685-14.825,12.932-24.086,27.75-27.796c0.473-0.119,1.206,0.123,1.25-0.744c0.248,0,0.496,0,0.744,0
		c0.124,0.379,0.248,0.317,0.372,0c84.077,0,168.154,0,252.231,0c0.124,0.33,0.248,0.381,0.372,0c0.248,0,0.496,0,0.744,0
		c0.078,0.971,0.911,0.665,1.426,0.782c6.63,1.501,12.445,4.554,17.299,9.299c7.277,7.113,10.939,15.85,10.952,25.998
		c0.051,38.245,0.02,76.491,0.025,114.736c0,0.928,0.054,1.857,0.083,2.785c-7.093,3.451-13.945,7.328-20.147,12.219
		c-23.767,18.745-41.294,42.293-53.14,70.047c-6.917,16.206-10.495,33.156-9.68,50.887c0.028,0.619,0.05,1.24,0.13,1.853
		c0.048,0.372,0.23,0.717,0.644,0.828c0.493,0.132,0.843-0.101,1.087-0.503c0.257-0.423,0.485-0.865,0.731-1.295
		c13.256-23.154,28.998-44.397,48.403-62.808c9.663-9.168,20.354-16.969,31.851-23.676c0.011,25.142,0.031,50.285,0.015,75.427
		c-0.001,1.912-0.133,3.841-0.405,5.733c-2.225,15.493-12.785,26.971-28.028,30.551c-0.474,0.111-1.21-0.121-1.246,0.751
		c-0.248,0-0.496,0-0.744,0C1058.307,696.263,1058.183,696.322,1058.059,696.642z M1003.069,673.236
		c1.075-0.145,0.903-0.997,0.898-1.707c-0.046-6.457,0.373-12.883,1.215-19.283c2.453-18.642,7.516-36.387,17.961-52.285
		c0.317-0.483,0.9-0.967,0.303-1.636c-0.603-0.675-1.181-0.341-1.824-0.01c-1.707,0.879-3.407,1.786-5.173,2.534
		c-10.293,4.362-20.913,6.598-32.105,4.569c-8.162-1.48-15.146-5.304-21.149-10.984c-0.42-0.397-0.826-1.098-1.546-0.563
		c-0.554,0.412-0.287,1.01-0.123,1.542c0.127,0.415,0.257,0.829,0.392,1.241c5.085,15.599,11.576,30.594,19.43,44.996
		c5.831,10.69,12.426,20.876,20.2,30.271C1001.967,672.427,1002.272,673.105,1003.069,673.236z M865.772,431.812
		c0,4.462,0.002,8.923-0.002,13.385c-0.001,0.761-0.094,1.502,1.073,1.489c4.894-0.056,9.796,0.084,14.681-0.142
		c3.764-0.173,6.576-2.61,7.529-5.933c1.077-3.757,0.186-6.671-2.926-8.999c-0.857-0.641-0.492-0.84,0.058-1.294
		c2.126-1.756,2.688-4.077,2.27-6.693c-0.674-4.214-3.753-6.539-8.946-6.643c-4.026-0.081-8.056,0.025-12.083-0.051
		c-1.302-0.025-1.703,0.379-1.682,1.682C865.816,423.012,865.772,427.412,865.772,431.812z M932.797,478.653
		c-0.129,0.046-0.258,0.093-0.387,0.139c-3.418-5.067-6.946-10.064-10.2-15.235c-1.344-2.135-2.791-3.071-5.359-2.873
		c-1.669,0.129-2.034,0.566-2.019,2.147c0.078,7.873,0.035,15.747,0.035,23.621c0,4.001,0,3.952,4.043,3.941
		c1.275-0.003,1.722-0.353,1.703-1.676c-0.07-4.773-0.038-9.547-0.016-14.321c0.003-0.64-0.224-1.339,0.261-1.953
		c0.655,0.161,0.798,0.764,1.09,1.191c3.184,4.657,6.48,9.244,9.456,14.031c1.368,2.2,2.918,2.999,5.425,2.763
		c1.394-0.131,1.759-0.508,1.749-1.861c-0.057-7.997-0.028-15.995-0.028-23.993c0-3.826-0.002-3.757-3.785-3.84
		c-1.507-0.033-2.037,0.34-2.007,1.939C932.858,467.998,932.797,473.326,932.797,478.653z M923.039,431.762c0,3.47,0,6.94,0,10.411
		c0,4.817-0.002,4.792,4.831,4.447c0.878-0.063,1.201-0.341,1.183-1.212c-0.038-1.92-0.01-3.842-0.01-5.763
		c0-4.152,0.001-4.091,4.205-4.161c1.333-0.022,2.005,0.435,2.519,1.614c0.791,1.814,1.749,3.556,2.636,5.329
		c2.171,4.339,2.17,4.288,7.03,4.205c1.47-0.025,1.32-0.491,0.815-1.497c-1.5-2.989-2.897-6.031-4.417-9.01
		c-0.496-0.972-0.39-1.431,0.577-2.035c3.784-2.363,5.234-6.514,3.992-11.019c-1.041-3.773-4.241-6.087-8.731-6.158
		c-4.399-0.07-8.8,0.014-13.199-0.049c-1.174-0.017-1.466,0.412-1.454,1.513C923.068,422.838,923.039,427.3,923.039,431.762z
		 M807.432,475.593c0,4.335,0.051,8.671-0.029,13.004c-0.026,1.42,0.32,1.938,1.847,1.909c5.138-0.096,10.279-0.037,15.419-0.037
		c3.965,0,3.902,0,3.907-3.896c0.002-1.367-0.505-1.644-1.738-1.625c-4.024,0.063-8.05-0.005-12.075,0.042
		c-1.08,0.013-1.598-0.249-1.525-1.441c0.087-1.419,0.069-2.85,0.005-4.271c-0.047-1.04,0.32-1.429,1.38-1.395
		c1.98,0.063,3.963-0.009,5.944,0.027c0.864,0.015,1.157-0.303,1.225-1.18c0.332-4.323,0.358-4.321-4.027-4.321
		c-4.763,0-4.725,0.002-4.534-4.749c0.044-1.1,0.456-1.348,1.445-1.334c3.034,0.043,6.069,0.015,9.103,0.015
		c4.082,0,4.025,0.001,3.976-4.01c-0.016-1.301-0.53-1.519-1.664-1.51c-5.697,0.044-11.395,0.051-17.091-0.004
		c-1.223-0.012-1.606,0.372-1.59,1.586C807.468,466.799,807.433,471.196,807.432,475.593z M895.928,431.769
		c0,4.398,0.046,8.797-0.028,13.194c-0.022,1.321,0.411,1.679,1.693,1.663c5.141-0.064,10.283-0.026,15.425-0.026
		c4.325,0,4.29,0.002,4.07-4.266c-0.051-0.991-0.397-1.271-1.329-1.259c-2.849,0.039-5.699,0.044-8.548,0.001
		c-1.722-0.026-4.004,0.744-5.023-0.288c-1.184-1.199-0.23-3.527-0.418-5.352c-0.125-1.212,0.451-1.46,1.521-1.423
		c1.856,0.065,3.717-0.018,5.574,0.032c0.976,0.026,1.418-0.201,1.461-1.32c0.159-4.195,0.203-4.194-3.978-4.194
		c-4.76,0-4.712,0.001-4.6-4.672c0.029-1.215,0.502-1.424,1.553-1.407c3.097,0.05,6.194,0.018,9.292,0.017
		c3.698,0,3.64-0.001,3.685-3.733c0.016-1.347-0.306-1.833-1.746-1.812c-5.636,0.081-11.275,0.084-16.911-0.001
		c-1.474-0.022-1.741,0.521-1.719,1.837C895.973,423.096,895.928,427.433,895.928,431.769z M887.874,475.664
		c0,4.214,0.067,8.43-0.034,12.642c-0.039,1.638,0.342,2.255,2.129,2.209c5.017-0.129,10.039-0.045,15.058-0.045
		c4.078,0,4.035,0.001,3.946-4.045c-0.025-1.145-0.392-1.496-1.511-1.472c-2.849,0.062-5.702,0.071-8.551,0.001
		c-1.711-0.043-3.97,0.79-4.991-0.359c-1.061-1.194-0.195-3.44-0.343-5.217c-0.093-1.121,0.305-1.544,1.461-1.497
		c1.918,0.079,3.842-0.012,5.762,0.033c0.942,0.022,1.273-0.302,1.328-1.275c0.24-4.231,0.272-4.229-3.946-4.229
		c-0.062,0-0.124,0-0.186,0c-4.515,0-4.457,0-4.443-4.476c0.004-1.369,0.505-1.646,1.736-1.616c2.973,0.074,5.949,0.024,8.924,0.024
		c3.948,0,3.901,0,3.869-3.934c-0.01-1.212-0.368-1.602-1.59-1.59c-5.639,0.055-11.28,0.076-16.918-0.011
		c-1.481-0.023-1.744,0.544-1.726,1.843C887.912,466.987,887.874,471.325,887.874,475.664z M1008.39,490.469
		c3.03,0,3.037-0.003,1.932-2.906c-3.085-8.099-6.236-16.174-9.221-24.31c-0.681-1.857-1.555-2.594-3.574-2.457
		c-3.554,0.24-2.649-0.491-4.013,2.825c-0.141,0.343-0.266,0.694-0.398,1.041c-3.065,8.04-6.098,16.094-9.226,24.11
		c-0.587,1.504-0.224,1.743,1.243,1.728c4.37-0.043,4.371,0.009,5.856-4.124c0.084-0.233,0.186-0.463,0.237-0.704
		c0.227-1.086,0.84-1.49,1.981-1.438c2.04,0.091,4.087,0.025,6.13,0.025c3.725,0,3.7,0.01,5.045,3.447
		C1005.642,490.926,1004.72,490.412,1008.39,490.469z M844.016,491.097c1.891-0.038,3.91-0.315,5.789-1.21
		c3.064-1.46,4.732-3.953,4.982-7.294c0.248-3.307-1.112-5.896-3.948-7.665c-1.265-0.789-2.612-1.395-4.02-1.899
		c-1.977-0.707-4.058-1.187-5.839-2.358c-1.81-1.19-1.664-3.284,0.251-4.292c2.02-1.063,5.466-0.427,6.744,1.454
		c0.67,0.986,1.261,1.173,2.256,0.712c0.503-0.233,1.038-0.439,1.58-0.534c1.762-0.308,1.848-1.137,1.052-2.575
		c-2.658-4.803-10.191-6.49-15.251-3.348c-5.187,3.221-5.111,10.404,0.16,13.471c2.047,1.191,4.308,1.878,6.542,2.614
		c1.064,0.351,2.103,0.746,3.039,1.364c1.123,0.742,1.717,1.771,1.512,3.153c-0.201,1.355-0.966,2.258-2.28,2.656
		c-2.737,0.829-5.102,0.26-7.141-1.806c-0.722-0.732-0.887-2.211-2.016-2.222c-1.048-0.01-2.103,0.644-3.155,1.007
		c-0.176,0.06-0.347,0.138-0.527,0.18c-1.061,0.245-1.193,0.802-0.737,1.753C835.197,488.816,838.912,490.908,844.016,491.097z
		 M1050.719,491.094c2.001-0.069,3.958-0.376,5.763-1.282c2.958-1.485,4.602-3.915,4.837-7.204c0.237-3.32-1.113-5.892-3.935-7.687
		c-1.905-1.212-4.029-1.896-6.139-2.622c-1.289-0.443-2.599-0.862-3.741-1.626c-1.797-1.201-1.645-3.297,0.282-4.301
		c2.047-1.066,5.475-0.426,6.734,1.492c0.688,1.048,1.311,1.081,2.27,0.667c0.51-0.221,1.04-0.443,1.583-0.534
		c1.865-0.314,1.728-1.26,0.991-2.61c-2.508-4.589-9.77-6.349-14.807-3.543c-2.723,1.517-4.205,3.824-4.216,6.945
		c-0.012,3.13,1.459,5.434,4.22,6.918c2.033,1.092,4.225,1.773,6.398,2.502c1.063,0.357,2.105,0.756,3.026,1.399
		c1.042,0.727,1.597,1.717,1.424,3.025c-0.18,1.36-0.932,2.244-2.229,2.706c-2.653,0.946-5.787,0.34-7.32-2.101
		c-1.337-2.13-2.643-2.127-4.493-1.135c-0.325,0.174-0.683,0.313-1.042,0.392c-1.224,0.268-1.17,0.91-0.736,1.893
		C1041.421,488.528,1045.694,491.135,1050.719,491.094z M870.202,460.488c-1.525,0.114-3.068,0.248-4.513,0.882
		c-3.085,1.352-5.026,3.552-5.183,7.056c-0.161,3.584,1.555,5.99,4.691,7.537c1.842,0.909,3.797,1.505,5.719,2.198
		c0.871,0.314,1.741,0.654,2.566,1.073c1.457,0.741,2.261,1.876,1.999,3.61c-0.257,1.699-1.452,2.377-2.925,2.693
		c-2.827,0.608-5.302-0.191-6.833-2.608c-1.095-1.727-2.147-1.906-3.73-0.991c-0.264,0.153-0.578,0.22-0.868,0.327
		c-2.064,0.76-2.097,0.852-1.019,2.858c3.276,6.092,12.728,8.01,18.16,3.684c4.521-3.6,4.183-10.689-0.667-13.827
		c-1.572-1.017-3.3-1.692-5.07-2.283c-1.644-0.549-3.325-1.036-4.804-1.969c-1.828-1.154-1.761-3.274,0.094-4.32
		c1.937-1.092,5.558-0.485,6.768,1.357c0.707,1.076,1.348,1.212,2.4,0.744c0.676-0.3,1.393-0.53,2.112-0.709
		c1.091-0.271,1.175-0.832,0.717-1.76C877.847,462.051,874.392,460.678,870.202,460.488z M807.259,431.339
		c0.055,4.348,0.753,7.955,3.003,11.113c4.266,5.986,13.914,6.168,18.38,0.358c2.313-3.01,2.288-2.949-1.202-4.397
		c-1.402-0.582-2.256-0.718-3.346,0.747c-2.484,3.336-6.909,3.06-8.934-0.577c-2.56-4.599-2.56-9.409,0.059-14.004
		c1.742-3.057,6.335-3.606,8.443-0.896c1.363,1.753,2.419,1.618,3.937,0.656c0.311-0.197,0.66-0.36,1.014-0.456
		c1.823-0.496,1.537-1.433,0.696-2.685c-3.977-5.917-13.623-6.415-18.314-0.909C808.139,423.638,807.42,427.677,807.259,431.339z
		 M847.336,428.94c-1.734-2.831-3.32-5.414-4.899-8.001c-2.545-4.169-2.542-4.138-7.361-4.003c-1.217,0.034-1.404,0.289-0.756,1.337
		c2.15,3.478,4.02,7.154,6.413,10.453c3.025,4.171,4.175,8.602,3.792,13.711c-0.322,4.286-0.067,4.262,4.268,4.192
		c1.148-0.019,1.501-0.378,1.478-1.493c-0.057-2.85,0.013-5.703-0.035-8.553c-0.018-1.099,0.25-2.039,0.825-2.976
		c2.625-4.278,5.227-8.57,7.778-12.892c0.676-1.146,2.24-2.492,1.691-3.448c-0.52-0.904-2.509-0.148-3.834-0.322
		c-1.479-0.194-2.355,0.372-3.105,1.685C851.658,422.013,849.559,425.302,847.336,428.94z M952.464,478.438c0,2.666,0,5.332,0,7.998
		c0,4.118,0,4.06,4.117,4.066c1.346,0.002,1.662-0.466,1.651-1.722c-0.053-5.951-0.024-11.903-0.024-17.855
		c0-4.515,0-4.515,4.587-4.514c3.812,0,3.747-0.001,3.793-3.824c0.017-1.4-0.398-1.794-1.785-1.776
		c-5.641,0.073-11.283,0.03-16.925,0.03c-4.057,0-4.057,0-3.923,4.044c0.004,0.124,0.013,0.249,0.002,0.372
		c-0.079,0.908,0.385,1.181,1.23,1.163c1.673-0.035,3.358,0.108,5.019-0.041c1.749-0.156,2.395,0.334,2.303,2.204
		C952.348,471.861,952.464,475.152,952.464,478.438z M1016.768,475.607c0,4.397,0.041,8.796-0.026,13.192
		c-0.019,1.279,0.348,1.717,1.667,1.698c4.83-0.069,9.662-0.027,14.493-0.027c4.004,0,3.956,0,3.934-4.053
		c-0.007-1.21-0.361-1.614-1.574-1.592c-3.529,0.065-7.067-0.1-10.588,0.085c-1.835,0.096-2.136-0.558-2.114-2.176
		c0.081-5.945,0.032-11.891,0.032-17.837c0-4.177,0-4.132-4.275-4.083c-1.221,0.014-1.591,0.386-1.574,1.602
		C1016.807,466.811,1016.768,471.209,1016.768,475.607z M972.216,475.455c0,3.711,0,7.422,0,11.133c0,3.913,0.002,3.827,3.883,3.922
		c1.647,0.04,1.911-0.592,1.9-2.041c-0.06-7.854-0.029-15.709-0.029-23.564c0-4.136-0.001-4.064-4.071-4.102
		c-1.481-0.014-1.73,0.551-1.709,1.85C972.258,466.92,972.216,471.188,972.216,475.455z"/>
	<path fill="#84C9DE" d="M1146.972,558.622c-2.268,0.573-4.558,1.068-6.8,1.73c-15.39,4.55-29.707,11.545-43.69,19.283
		c-2.593,1.435-5.098,3.026-7.644,4.545c-11.497,6.708-22.188,14.509-31.851,23.676c-19.405,18.411-35.147,39.654-48.403,62.808
		c-0.246,0.43-0.474,0.872-0.731,1.295c-0.245,0.402-0.594,0.634-1.087,0.503c-0.414-0.11-0.596-0.456-0.644-0.828
		c-0.08-0.613-0.102-1.234-0.13-1.853c-0.814-17.73,2.763-34.681,9.68-50.887c11.846-27.754,29.373-51.303,53.14-70.047
		c6.202-4.891,13.054-8.768,20.147-12.219c8.883-3.898,18.043-6.772,27.728-7.919c4.269-0.505,7.954,0.66,11.393,2.988
		c3.853,2.607,6.867,6.056,9.59,9.774c3.194,4.361,5.858,9.039,8.181,13.915c0.41,0.861,0.415,0.858,1.12,1.005
		C1146.972,557.134,1146.972,557.878,1146.972,558.622z"/>
	<path fill="#0D0D0C" d="M774.95,665.392c0.345,0.248,0.518,0.496,0,0.744C774.95,665.888,774.95,665.64,774.95,665.392z"/>
	<path fill="#0D0D0C" d="M805.084,696.642c0.248-0.524,0.496-0.333,0.744,0C805.58,696.642,805.332,696.642,805.084,696.642z"/>
	<path fill="#0D0D0C" d="M805.828,383.027c-0.124,0.317-0.248,0.379-0.372,0C805.58,383.027,805.704,383.027,805.828,383.027z"/>
	<path fill="#0D0D0C" d="M774.95,413.905c0.377,0.124,0.303,0.248,0,0.372C774.95,414.153,774.95,414.029,774.95,413.905z"/>
	<path fill="#0D0D0C" d="M1058.431,383.027c-0.124,0.381-0.248,0.33-0.372,0C1058.183,383.027,1058.307,383.027,1058.431,383.027z"
		/>
	<path fill="#0D0D0C" d="M1058.059,696.642c0.124-0.32,0.248-0.378,0.372,0C1058.307,696.642,1058.183,696.642,1058.059,696.642z"/>
	<path fill="#A3C85B" d="M1003.069,673.236c-0.797-0.131-1.102-0.809-1.521-1.315c-7.774-9.395-14.369-19.582-20.2-30.271
		c-7.855-14.401-14.345-29.396-19.43-44.996c-0.134-0.412-0.264-0.826-0.392-1.241c-0.163-0.533-0.43-1.13,0.123-1.542
		c0.72-0.536,1.126,0.165,1.546,0.563c6.003,5.681,12.986,9.505,21.149,10.984c11.192,2.029,21.812-0.207,32.105-4.569
		c1.765-0.748,3.466-1.654,5.173-2.534c0.643-0.331,1.221-0.665,1.824,0.01c0.597,0.668,0.014,1.153-0.303,1.636
		c-10.445,15.898-15.508,33.643-17.961,52.285c-0.842,6.4-1.262,12.827-1.215,19.283
		C1003.972,672.238,1004.144,673.091,1003.069,673.236z"/>
	<path fill="#82C5DB" d="M865.772,431.812c0-4.4,0.044-8.8-0.027-13.198c-0.021-1.303,0.38-1.707,1.682-1.682
		c4.026,0.076,8.056-0.03,12.083,0.051c5.193,0.104,8.272,2.429,8.946,6.643c0.418,2.616-0.145,4.937-2.27,6.693
		c-0.549,0.454-0.915,0.653-0.058,1.294c3.112,2.328,4.003,5.242,2.926,8.999c-0.953,3.323-3.765,5.759-7.529,5.933
		c-4.885,0.225-9.787,0.086-14.681,0.142c-1.167,0.013-1.074-0.729-1.073-1.489C865.774,440.735,865.772,436.273,865.772,431.812z
		 M876.606,434.032c-1.333,0-2.451,0.046-3.564-0.014c-0.984-0.053-1.312,0.349-1.281,1.303c0.052,1.61,0.028,3.223,0.009,4.834
		c-0.008,0.724,0.182,1.212,1.026,1.183c2.597-0.088,5.205,0.221,7.792-0.205c2.021-0.333,2.968-1.298,3.084-3.108
		c0.129-2.009-0.776-3.187-2.843-3.744C879.364,433.886,877.87,434.098,876.606,434.032z M876.216,422.429v-0.026
		c-1.173,0-2.347,0.014-3.52-0.005c-0.685-0.012-1.02,0.248-1.007,0.972c0.026,1.42,0.016,2.841,0.007,4.261
		c-0.004,0.622,0.301,0.899,0.901,0.889c2.468-0.042,4.948,0.049,7.399-0.174c1.848-0.168,2.77-1.473,2.688-3.179
		c-0.075-1.569-1.107-2.577-2.95-2.721C878.568,422.356,877.389,422.429,876.216,422.429z"/>
	<path fill="#A1C45B" d="M932.797,478.653c0-5.327,0.061-10.655-0.037-15.98c-0.03-1.598,0.5-1.972,2.007-1.939
		c3.784,0.083,3.785,0.014,3.785,3.84c0,7.998-0.029,15.996,0.028,23.993c0.01,1.353-0.356,1.73-1.749,1.861
		c-2.507,0.236-4.057-0.563-5.425-2.763c-2.976-4.787-6.273-9.374-9.456-14.031c-0.292-0.428-0.435-1.03-1.09-1.191
		c-0.486,0.614-0.258,1.313-0.261,1.953c-0.022,4.774-0.054,9.548,0.016,14.321c0.019,1.323-0.428,1.673-1.703,1.676
		c-4.043,0.011-4.043,0.06-4.043-3.941c0-7.874,0.042-15.748-0.035-23.621c-0.016-1.582,0.349-2.018,2.019-2.147
		c2.567-0.198,4.015,0.738,5.359,2.873c3.254,5.17,6.782,10.168,10.2,15.235C932.539,478.746,932.668,478.699,932.797,478.653z"/>
	<path fill="#82C5DB" d="M923.039,431.762c0-4.462,0.029-8.924-0.02-13.385c-0.012-1.101,0.28-1.529,1.454-1.513
		c4.399,0.062,8.8-0.021,13.199,0.049c4.49,0.071,7.69,2.385,8.731,6.158c1.243,4.505-0.208,8.656-3.992,11.019
		c-0.967,0.604-1.073,1.063-0.577,2.035c1.519,2.979,2.916,6.021,4.417,9.01c0.505,1.006,0.654,1.472-0.815,1.497
		c-4.86,0.083-4.859,0.134-7.03-4.205c-0.887-1.773-1.845-3.514-2.636-5.329c-0.514-1.179-1.185-1.636-2.519-1.614
		c-4.204,0.071-4.205,0.009-4.205,4.161c0,1.921-0.028,3.843,0.01,5.763c0.017,0.871-0.305,1.149-1.183,1.212
		c-4.833,0.345-4.831,0.37-4.831-4.447C923.039,438.702,923.039,435.232,923.039,431.762z M933.829,429.974
		c0.968,0,2.02-0.008,3.072,0.002c2.403,0.021,3.67-1.186,3.76-3.595c0.092-2.448-1.191-3.894-3.615-3.964
		c-1.917-0.056-3.837-0.03-5.756-0.015c-2.833,0.023-2.582-0.375-2.549,2.583c0.018,1.59-0.701,3.649,0.338,4.647
		C930.107,430.618,932.152,429.796,933.829,429.974z"/>
	<path fill="#A1C45B" d="M807.433,475.593c0-4.397,0.035-8.794-0.023-13.19c-0.016-1.214,0.367-1.598,1.59-1.586
		c5.697,0.056,11.394,0.048,17.091,0.004c1.134-0.009,1.648,0.209,1.664,1.51c0.049,4.011,0.107,4.01-3.976,4.01
		c-3.034,0-6.069,0.028-9.103-0.015c-0.989-0.014-1.401,0.234-1.445,1.334c-0.191,4.75-0.229,4.749,4.534,4.749
		c4.385,0,4.359-0.002,4.027,4.321c-0.067,0.877-0.361,1.195-1.225,1.18c-1.981-0.036-3.965,0.036-5.944-0.027
		c-1.06-0.034-1.427,0.355-1.38,1.395c0.064,1.421,0.082,2.852-0.005,4.271c-0.073,1.193,0.445,1.454,1.525,1.441
		c4.025-0.047,8.051,0.021,12.075-0.042c1.232-0.019,1.739,0.258,1.738,1.625c-0.005,3.896,0.058,3.896-3.907,3.896
		c-5.14,0-10.281-0.06-15.419,0.037c-1.527,0.029-1.873-0.489-1.847-1.909C807.484,484.263,807.432,479.927,807.433,475.593z"/>
	<path fill="#82C5DB" d="M895.928,431.769c0-4.336,0.044-8.673-0.027-13.008c-0.022-1.316,0.246-1.859,1.719-1.837
		c5.636,0.085,11.275,0.082,16.911,0.001c1.44-0.021,1.762,0.465,1.746,1.812c-0.045,3.732,0.013,3.733-3.685,3.733
		c-3.097,0-6.195,0.033-9.292-0.017c-1.051-0.017-1.523,0.192-1.553,1.407c-0.113,4.673-0.16,4.672,4.6,4.672
		c4.181,0,4.136-0.002,3.978,4.194c-0.042,1.119-0.484,1.347-1.461,1.32c-1.857-0.05-3.718,0.033-5.574-0.032
		c-1.069-0.037-1.646,0.211-1.521,1.423c0.188,1.825-0.766,4.154,0.418,5.352c1.019,1.031,3.301,0.262,5.023,0.288
		c2.849,0.043,5.699,0.038,8.548-0.001c0.932-0.013,1.278,0.268,1.329,1.259c0.219,4.268,0.254,4.266-4.07,4.266
		c-5.142,0-10.284-0.037-15.425,0.026c-1.282,0.016-1.715-0.342-1.693-1.663C895.975,440.566,895.928,436.167,895.928,431.769z"/>
	<path fill="#A1C45B" d="M887.874,475.664c0-4.338,0.038-8.677-0.023-13.014c-0.018-1.299,0.245-1.866,1.726-1.843
		c5.638,0.086,11.279,0.065,16.918,0.011c1.223-0.012,1.581,0.377,1.59,1.59c0.031,3.935,0.079,3.934-3.869,3.934
		c-2.975,0-5.951,0.05-8.924-0.024c-1.231-0.031-1.732,0.247-1.736,1.616c-0.015,4.476-0.072,4.476,4.443,4.476
		c0.062,0,0.124,0,0.186,0c4.218,0,4.185-0.002,3.946,4.229c-0.055,0.973-0.387,1.297-1.328,1.275
		c-1.92-0.045-3.844,0.045-5.762-0.033c-1.156-0.048-1.554,0.375-1.461,1.497c0.148,1.777-0.718,4.023,0.343,5.217
		c1.021,1.149,3.28,0.317,4.991,0.359c2.849,0.071,5.702,0.062,8.551-0.001c1.119-0.024,1.486,0.327,1.511,1.472
		c0.088,4.046,0.132,4.045-3.946,4.045c-5.02,0-10.042-0.084-15.058,0.045c-1.787,0.046-2.168-0.571-2.129-2.209
		C887.94,484.094,887.874,479.878,887.874,475.664z"/>
	<path fill="#A1C45B" d="M1008.39,490.469c-3.67-0.056-2.748,0.457-4.008-2.764c-1.345-3.438-1.32-3.447-5.045-3.447
		c-2.044,0-4.091,0.066-6.13-0.025c-1.141-0.051-1.754,0.352-1.981,1.438c-0.05,0.241-0.153,0.471-0.237,0.704
		c-1.485,4.134-1.486,4.081-5.856,4.124c-1.467,0.014-1.83-0.225-1.243-1.728c3.128-8.016,6.16-16.069,9.226-24.11
		c0.132-0.347,0.257-0.697,0.398-1.041c1.364-3.315,0.459-2.585,4.013-2.825c2.019-0.136,2.893,0.6,3.574,2.457
		c2.985,8.136,6.136,16.211,9.221,24.31C1011.427,490.466,1011.42,490.469,1008.39,490.469z M997.695,469.756
		c-0.16-0.018-0.32-0.036-0.479-0.054c-1.089,2.785-2.168,5.575-3.275,8.353c-0.318,0.797,0.029,0.972,0.735,0.967
		c1.787-0.013,3.574-0.02,5.36,0.005c0.746,0.011,1.023-0.217,0.738-0.975C999.738,475.291,998.72,472.522,997.695,469.756z"/>
	<path fill="#A1C45B" d="M844.016,491.097c-5.104-0.189-8.819-2.281-11.006-6.84c-0.456-0.95-0.324-1.507,0.737-1.753
		c0.18-0.042,0.351-0.119,0.527-0.18c1.052-0.362,2.107-1.017,3.155-1.007c1.129,0.011,1.294,1.49,2.016,2.222
		c2.039,2.066,4.403,2.635,7.141,1.806c1.314-0.398,2.079-1.301,2.28-2.656c0.205-1.382-0.389-2.411-1.512-3.153
		c-0.935-0.618-1.975-1.013-3.039-1.364c-2.233-0.736-4.495-1.423-6.542-2.614c-5.271-3.068-5.347-10.25-0.16-13.471
		c5.06-3.142,12.594-1.455,15.251,3.348c0.796,1.438,0.71,2.267-1.052,2.575c-0.542,0.095-1.078,0.301-1.58,0.534
		c-0.995,0.461-1.586,0.275-2.256-0.712c-1.278-1.881-4.724-2.518-6.744-1.454c-1.915,1.008-2.061,3.102-0.251,4.292
		c1.78,1.171,3.862,1.651,5.839,2.358c1.408,0.504,2.755,1.11,4.02,1.899c2.835,1.769,4.195,4.357,3.948,7.665
		c-0.25,3.341-1.918,5.834-4.982,7.294C847.926,490.782,845.906,491.059,844.016,491.097z"/>
	<path fill="#A1C45B" d="M1050.719,491.093c-5.025,0.042-9.299-2.565-11.132-6.706c-0.435-0.982-0.489-1.625,0.736-1.893
		c0.359-0.079,0.717-0.218,1.042-0.392c1.85-0.992,3.156-0.995,4.493,1.135c1.533,2.442,4.667,3.047,7.32,2.101
		c1.297-0.462,2.048-1.346,2.229-2.706c0.174-1.308-0.382-2.298-1.424-3.025c-0.921-0.643-1.963-1.042-3.026-1.399
		c-2.173-0.73-4.365-1.41-6.398-2.502c-2.761-1.483-4.232-3.787-4.22-6.918c0.012-3.121,1.494-5.428,4.216-6.945
		c5.037-2.806,12.299-1.046,14.807,3.543c0.737,1.35,0.874,2.295-0.991,2.61c-0.543,0.091-1.072,0.314-1.583,0.534
		c-0.959,0.414-1.582,0.381-2.27-0.667c-1.259-1.917-4.687-2.558-6.734-1.492c-1.927,1.004-2.079,3.1-0.282,4.301
		c1.143,0.764,2.452,1.183,3.741,1.626c2.11,0.726,4.234,1.41,6.139,2.622c2.822,1.795,4.172,4.367,3.935,7.687
		c-0.235,3.289-1.879,5.72-4.837,7.204C1054.677,490.718,1052.72,491.024,1050.719,491.093z"/>
	<path fill="#A1C45B" d="M870.202,460.488c4.19,0.19,7.644,1.562,9.615,5.553c0.458,0.927,0.374,1.489-0.717,1.76
		c-0.719,0.178-1.436,0.408-2.112,0.709c-1.052,0.467-1.693,0.332-2.4-0.744c-1.21-1.841-4.831-2.449-6.768-1.357
		c-1.855,1.046-1.921,3.167-0.094,4.32c1.479,0.933,3.16,1.42,4.804,1.969c1.769,0.591,3.498,1.266,5.07,2.283
		c4.85,3.138,5.188,10.227,0.667,13.827c-5.432,4.326-14.883,2.408-18.16-3.684c-1.079-2.006-1.046-2.099,1.019-2.858
		c0.291-0.107,0.604-0.175,0.868-0.327c1.584-0.915,2.636-0.736,3.73,0.991c1.531,2.416,4.006,3.216,6.833,2.608
		c1.472-0.317,2.668-0.995,2.925-2.693c0.262-1.733-0.542-2.868-1.999-3.61c-0.824-0.419-1.694-0.759-2.566-1.073
		c-1.922-0.693-3.877-1.29-5.719-2.198c-3.136-1.547-4.852-3.953-4.691-7.537c0.157-3.504,2.098-5.704,5.183-7.056
		C867.135,460.736,868.678,460.602,870.202,460.488z"/>
	<path fill="#82C5DB" d="M807.259,431.339c0.161-3.662,0.88-7.7,3.735-11.051c4.692-5.506,14.337-5.008,18.314,0.909
		c0.841,1.252,1.127,2.188-0.696,2.685c-0.354,0.096-0.704,0.259-1.014,0.456c-1.517,0.962-2.573,1.097-3.937-0.656
		c-2.108-2.71-6.701-2.161-8.443,0.896c-2.619,4.595-2.62,9.404-0.059,14.004c2.025,3.638,6.451,3.913,8.934,0.577
		c1.09-1.464,1.944-1.329,3.346-0.747c3.49,1.448,3.515,1.388,1.202,4.397c-4.466,5.811-14.115,5.628-18.38-0.358
		C808.012,439.294,807.314,435.687,807.259,431.339z"/>
	<path fill="#82C5DB" d="M847.336,428.94c2.223-3.638,4.321-6.926,6.254-10.309c0.75-1.313,1.626-1.879,3.105-1.685
		c1.326,0.174,3.315-0.582,3.834,0.322c0.549,0.955-1.015,2.302-1.691,3.448c-2.551,4.322-5.153,8.614-7.778,12.892
		c-0.575,0.937-0.843,1.877-0.825,2.976c0.048,2.85-0.023,5.703,0.035,8.553c0.023,1.115-0.33,1.475-1.478,1.493
		c-4.335,0.07-4.59,0.094-4.268-4.192c0.384-5.109-0.766-9.541-3.792-13.711c-2.393-3.299-4.263-6.974-6.413-10.453
		c-0.648-1.048-0.461-1.303,0.756-1.337c4.819-0.134,4.816-0.166,7.361,4.003C844.016,423.526,845.602,426.108,847.336,428.94z"/>
	<path fill="#A1C45B" d="M952.464,478.438c0-3.286-0.116-6.577,0.045-9.855c0.092-1.871-0.554-2.361-2.303-2.204
		c-1.661,0.148-3.345,0.005-5.019,0.041c-0.844,0.018-1.309-0.255-1.23-1.163c0.011-0.123,0.002-0.248-0.002-0.372
		c-0.134-4.044-0.134-4.044,3.923-4.044c5.642,0,11.284,0.043,16.925-0.03c1.388-0.018,1.802,0.377,1.785,1.776
		c-0.046,3.823,0.019,3.824-3.793,3.824c-4.587,0-4.587,0-4.587,4.514c0,5.952-0.029,11.904,0.024,17.855
		c0.011,1.256-0.305,1.724-1.651,1.722c-4.117-0.006-4.117,0.052-4.117-4.066C952.464,483.77,952.464,481.104,952.464,478.438z"/>
	<path fill="#A1C45B" d="M1016.768,475.607c0-4.398,0.039-8.796-0.025-13.192c-0.018-1.216,0.352-1.588,1.574-1.602
		c4.275-0.049,4.275-0.094,4.275,4.083c0,5.946,0.049,11.893-0.032,17.837c-0.022,1.618,0.279,2.272,2.114,2.176
		c3.521-0.184,7.059-0.019,10.588-0.085c1.213-0.022,1.567,0.381,1.574,1.592c0.022,4.053,0.071,4.053-3.934,4.053
		c-4.831,0-9.663-0.042-14.493,0.027c-1.319,0.019-1.686-0.418-1.667-1.698C1016.809,484.402,1016.768,480.004,1016.768,475.607z"/>
	<path fill="#A1C45B" d="M972.216,475.455c0-4.268,0.042-8.536-0.025-12.802c-0.021-1.299,0.228-1.864,1.709-1.85
		c4.07,0.038,4.071-0.034,4.071,4.102c0,7.855-0.032,15.71,0.029,23.564c0.011,1.449-0.253,2.081-1.9,2.041
		c-3.881-0.095-3.883-0.009-3.883-3.922C972.216,482.877,972.216,479.166,972.216,475.455z"/>
	<path fill="#333053" d="M876.606,434.032c1.263,0.065,2.758-0.147,4.223,0.249c2.067,0.557,2.972,1.735,2.843,3.744
		c-0.116,1.81-1.063,2.775-3.084,3.108c-2.587,0.426-5.195,0.118-7.792,0.205c-0.843,0.028-1.034-0.459-1.026-1.183
		c0.018-1.611,0.043-3.224-0.009-4.834c-0.031-0.953,0.297-1.356,1.281-1.303C874.155,434.078,875.273,434.032,876.606,434.032z"/>
	<path fill="#333053" d="M876.216,422.429c1.173,0,2.352-0.074,3.518,0.017c1.844,0.144,2.875,1.151,2.95,2.721
		c0.082,1.706-0.84,3.011-2.688,3.179c-2.451,0.222-4.931,0.132-7.399,0.174c-0.6,0.01-0.905-0.266-0.901-0.889
		c0.009-1.42,0.019-2.841-0.007-4.261c-0.013-0.724,0.321-0.984,1.007-0.972c1.173,0.02,2.347,0.005,3.52,0.005L876.216,422.429
		L876.216,422.429z"/>
	<path fill="#333053" d="M933.829,429.974c-1.676-0.178-3.722,0.644-4.749-0.342c-1.039-0.998-0.32-3.057-0.338-4.647
		c-0.033-2.958-0.284-2.56,2.549-2.583c1.918-0.016,3.838-0.041,5.756,0.015c2.424,0.071,3.707,1.516,3.615,3.964
		c-0.09,2.409-1.357,3.617-3.76,3.595C935.849,429.966,934.797,429.974,933.829,429.974z"/>
	<path fill="#333053" d="M997.695,469.756c1.025,2.766,2.043,5.535,3.079,8.296c0.285,0.758,0.008,0.986-0.738,0.975
		c-1.786-0.025-3.573-0.018-5.36-0.005c-0.706,0.005-1.053-0.17-0.735-0.967c1.107-2.778,2.186-5.568,3.275-8.353
		C997.376,469.72,997.536,469.738,997.695,469.756z"/>
</g>
</svg>
