<?xml version="1.0" encoding="utf-8"?>
<!-- Generator: Adobe Illustrator 17.0.0, SVG Export Plug-In . SVG Version: 6.00 Build 0)  -->
<!DOCTYPE svg PUBLIC "-//W3C//DTD SVG 1.1//EN" "http://www.w3.org/Graphics/SVG/1.1/DTD/svg11.dtd">
<svg version="1.1" id="Layer_1" xmlns="http://www.w3.org/2000/svg" xmlns:xlink="http://www.w3.org/1999/xlink" x="0px" y="0px"
	 width="1920px" height="1080px" viewBox="0 0 1920 1080" enable-background="new 0 0 1920 1080" xml:space="preserve">
<g>
	<g>
		<path fill="#333053" d="M1058.162,692.784c-82.796,0-165.592,0-248.387,0c-0.244-0.327-0.488-0.516-0.733,0
			c-0.244,0-0.488,0-0.733,0c-0.105-1.009-1.003-0.714-1.548-0.86c-14.27-3.818-23.11-12.925-26.649-27.236
			c-0.115-0.463,0.129-1.197-0.745-1.213c0-0.244,0-0.488,0-0.733c0.51-0.244,0.34-0.488,0-0.733c0-82.429,0-164.859,0-247.288
			c0.298-0.122,0.371-0.244,0-0.366c0-0.366,0-0.733,0-1.099c0.878-0.005,0.636-0.743,0.75-1.203
			c3.628-14.6,12.735-23.719,27.327-27.373c0.466-0.117,1.187,0.121,1.231-0.733c0.244,0,0.488,0,0.733,0
			c0.122,0.373,0.244,0.313,0.366,0c82.796,0,165.592,0,248.387,0c0.122,0.325,0.244,0.375,0.366,0c0.244,0,0.488,0,0.733,0
			c0.077,0.956,0.897,0.655,1.404,0.77c6.529,1.478,12.255,4.485,17.036,9.157c7.166,7.004,10.772,15.609,10.785,25.602
			c0.05,37.662,0.02,75.325,0.024,112.987c0,0.914,0.054,1.828,0.082,2.743c-6.985,3.398-13.733,7.216-19.84,12.033
			c-23.405,18.459-40.665,41.649-52.331,68.98c-6.812,15.959-10.335,32.651-9.533,50.111c0.028,0.609,0.05,1.221,0.128,1.825
			c0.048,0.366,0.226,0.707,0.634,0.815c0.485,0.129,0.83-0.099,1.071-0.495c0.253-0.417,0.477-0.851,0.72-1.275
			c13.054-22.801,28.556-43.72,47.665-61.851c9.515-9.028,20.044-16.71,31.366-23.316c0.011,24.759,0.03,49.519,0.015,74.278
			c-0.001,1.883-0.131,3.782-0.399,5.646c-2.192,15.257-12.591,26.56-27.601,30.086c-0.466,0.11-1.191-0.119-1.227,0.739
			c-0.244,0-0.489,0-0.733,0C1058.406,692.412,1058.284,692.469,1058.162,692.784z M1004.01,669.735
			c1.058-0.142,0.889-0.982,0.884-1.681c-0.045-6.358,0.368-12.687,1.197-18.989c2.416-18.358,7.401-35.832,17.687-51.488
			c0.312-0.475,0.886-0.953,0.298-1.611c-0.594-0.665-1.164-0.336-1.796-0.009c-1.681,0.866-3.355,1.758-5.094,2.495
			c-10.136,4.295-20.594,6.498-31.615,4.499c-8.038-1.457-14.915-5.223-20.826-10.817c-0.414-0.391-0.814-1.082-1.523-0.554
			c-0.545,0.406-0.283,0.994-0.122,1.519c0.125,0.408,0.253,0.816,0.386,1.222c5.008,15.362,11.399,30.128,19.134,44.31
			c5.742,10.527,12.237,20.558,19.892,29.81C1002.925,668.938,1003.225,669.606,1004.01,669.735z M868.805,431.99
			c0,4.394,0.002,8.787-0.002,13.181c-0.001,0.749-0.093,1.479,1.057,1.466c4.82-0.055,9.647,0.082,14.458-0.139
			c3.706-0.171,6.476-2.57,7.414-5.842c1.061-3.699,0.183-6.57-2.881-8.862c-0.844-0.631-0.484-0.827,0.057-1.274
			c2.093-1.729,2.647-4.015,2.236-6.591c-0.664-4.15-3.696-6.439-8.81-6.542c-3.965-0.08-7.933,0.025-11.898-0.05
			c-1.282-0.024-1.677,0.373-1.656,1.656C868.848,423.324,868.805,427.657,868.805,431.99z M934.809,478.117
			c-0.127,0.046-0.254,0.091-0.381,0.137c-3.366-4.99-6.841-9.911-10.045-15.002c-1.323-2.103-2.749-3.024-5.277-2.829
			c-1.644,0.127-2.003,0.557-1.988,2.114c0.076,7.753,0.035,15.507,0.035,23.261c0,3.94,0,3.892,3.982,3.881
			c1.256-0.003,1.696-0.348,1.677-1.651c-0.069-4.7-0.037-9.402-0.015-14.103c0.003-0.63-0.221-1.319,0.257-1.924
			c0.645,0.159,0.786,0.752,1.074,1.173c3.135,4.586,6.382,9.103,9.312,13.817c1.347,2.166,2.873,2.953,5.342,2.721
			c1.372-0.129,1.732-0.501,1.723-1.833c-0.056-7.875-0.027-15.752-0.027-23.627c0-3.768-0.001-3.7-3.727-3.781
			c-1.484-0.032-2.006,0.335-1.977,1.909C934.869,467.624,934.809,472.871,934.809,478.117z M925.199,431.94
			c0,3.417,0,6.835,0,10.252c0,4.744-0.002,4.719,4.758,4.38c0.865-0.062,1.182-0.336,1.165-1.194
			c-0.037-1.891-0.01-3.783-0.01-5.675c0-4.089,0.001-4.028,4.141-4.098c1.313-0.022,1.974,0.428,2.48,1.589
			c0.779,1.787,1.723,3.502,2.596,5.247c2.138,4.273,2.137,4.222,6.923,4.141c1.447-0.025,1.3-0.483,0.803-1.474
			c-1.477-2.944-2.853-5.939-4.349-8.873c-0.488-0.957-0.384-1.41,0.568-2.004c3.726-2.327,5.155-6.415,3.931-10.851
			c-1.025-3.716-4.176-5.994-8.598-6.064c-4.332-0.069-8.666,0.013-12.998-0.048c-1.156-0.016-1.444,0.405-1.432,1.49
			C925.228,423.152,925.2,427.546,925.199,431.94z M811.355,475.103c0,4.269,0.05,8.539-0.029,12.806
			c-0.026,1.399,0.315,1.908,1.819,1.88c5.06-0.095,10.122-0.036,15.184-0.036c3.905,0,3.843,0,3.847-3.836
			c0.002-1.346-0.498-1.619-1.711-1.6c-3.963,0.062-7.928-0.005-11.891,0.041c-1.063,0.012-1.573-0.245-1.501-1.419
			c0.086-1.397,0.068-2.806,0.005-4.206c-0.046-1.024,0.315-1.407,1.359-1.374c1.949,0.062,3.903-0.009,5.854,0.026
			c0.85,0.015,1.14-0.298,1.206-1.162c0.327-4.257,0.353-4.255-3.966-4.255c-4.691,0-4.653,0.002-4.465-4.676
			c0.044-1.083,0.449-1.327,1.423-1.314c2.988,0.042,5.976,0.015,8.964,0.014c4.02,0,3.964,0.001,3.915-3.949
			c-0.016-1.281-0.522-1.496-1.639-1.487c-5.61,0.043-11.221,0.051-16.831-0.004c-1.205-0.012-1.582,0.366-1.566,1.562
			C811.39,466.443,811.355,470.774,811.355,475.103z M898.502,431.947c0,4.331,0.046,8.663-0.028,12.993
			c-0.022,1.301,0.405,1.654,1.667,1.638c5.063-0.063,10.126-0.026,15.19-0.026c4.259,0,4.225,0.002,4.008-4.201
			c-0.05-0.976-0.391-1.252-1.309-1.24c-2.806,0.039-5.613,0.044-8.418,0.001c-1.696-0.026-3.943,0.732-4.947-0.283
			c-1.166-1.18-0.227-3.474-0.412-5.271c-0.123-1.193,0.445-1.438,1.498-1.401c1.828,0.064,3.661-0.018,5.489,0.031
			c0.962,0.026,1.397-0.198,1.438-1.3c0.156-4.132,0.2-4.13-3.917-4.13c-4.687,0-4.641,0.001-4.529-4.601
			c0.029-1.196,0.494-1.402,1.529-1.386c3.049,0.049,6.1,0.017,9.15,0.017c3.642,0,3.585-0.001,3.629-3.676
			c0.016-1.327-0.301-1.805-1.719-1.785c-5.55,0.08-11.103,0.082-16.653-0.001c-1.451-0.022-1.714,0.513-1.693,1.809
			C898.546,423.406,898.502,427.677,898.502,431.947z M890.57,475.173c0,4.15,0.066,8.302-0.033,12.449
			c-0.038,1.613,0.336,2.22,2.096,2.175c4.94-0.127,9.886-0.044,14.829-0.044c4.016,0,3.973,0.001,3.886-3.983
			c-0.025-1.128-0.385-1.474-1.488-1.45c-2.806,0.061-5.615,0.07-8.421,0.001c-1.685-0.042-3.909,0.778-4.915-0.354
			c-1.045-1.176-0.192-3.388-0.338-5.138c-0.092-1.104,0.3-1.521,1.438-1.474c1.889,0.078,3.784-0.011,5.674,0.033
			c0.928,0.022,1.254-0.297,1.308-1.255c0.236-4.167,0.268-4.165-3.886-4.165c-0.061,0-0.122,0-0.183,0c-4.446,0-4.39,0-4.375-4.408
			c0.004-1.348,0.498-1.621,1.71-1.591c2.928,0.073,5.858,0.023,8.788,0.023c3.888,0,3.841,0,3.81-3.874
			c-0.009-1.194-0.362-1.577-1.566-1.566c-5.553,0.054-11.108,0.074-16.66-0.011c-1.458-0.022-1.718,0.536-1.699,1.815
			C890.608,466.629,890.57,470.901,890.57,475.173z M1009.25,489.753c2.984,0,2.991-0.003,1.902-2.862
			c-3.038-7.976-6.141-15.928-9.08-23.94c-0.671-1.829-1.531-2.554-3.52-2.42c-3.5,0.236-2.608-0.483-3.952,2.782
			c-0.139,0.338-0.262,0.683-0.392,1.025c-3.019,7.918-6.005,15.848-9.085,23.742c-0.578,1.481-0.22,1.716,1.224,1.702
			c4.303-0.043,4.304,0.009,5.767-4.062c0.082-0.23,0.183-0.456,0.233-0.693c0.223-1.07,0.827-1.467,1.951-1.416
			c2.009,0.09,4.024,0.025,6.037,0.025c3.668,0,3.643,0.01,4.968,3.395C1006.544,490.203,1005.636,489.697,1009.25,489.753z
			 M847.38,490.371c1.862-0.038,3.851-0.31,5.701-1.192c3.018-1.438,4.66-3.893,4.906-7.183c0.244-3.257-1.096-5.806-3.888-7.548
			c-1.245-0.777-2.572-1.374-3.959-1.87c-1.946-0.697-3.997-1.169-5.75-2.322c-1.782-1.172-1.638-3.234,0.247-4.227
			c1.989-1.047,5.383-0.42,6.641,1.432c0.66,0.971,1.242,1.155,2.222,0.701c0.495-0.229,1.022-0.432,1.556-0.525
			c1.735-0.303,1.82-1.119,1.036-2.536c-2.617-4.73-10.036-6.392-15.019-3.297c-5.108,3.172-5.033,10.245,0.157,13.266
			c2.015,1.173,4.243,1.849,6.442,2.574c1.048,0.345,2.071,0.735,2.992,1.343c1.106,0.731,1.691,1.744,1.489,3.105
			c-0.198,1.334-0.951,2.224-2.245,2.615c-2.695,0.816-5.024,0.256-7.032-1.778c-0.711-0.721-0.874-2.177-1.986-2.188
			c-1.032-0.01-2.071,0.635-3.107,0.991c-0.173,0.06-0.342,0.136-0.519,0.177c-1.045,0.242-1.175,0.79-0.726,1.726
			C838.696,488.125,842.354,490.185,847.38,490.371z M1050.934,490.368c1.97-0.068,3.897-0.37,5.675-1.263
			c2.912-1.462,4.532-3.855,4.763-7.094c0.234-3.269-1.096-5.802-3.875-7.57c-1.876-1.193-3.967-1.867-6.045-2.582
			c-1.27-0.437-2.559-0.849-3.684-1.601c-1.769-1.183-1.62-3.247,0.278-4.236c2.015-1.05,5.392-0.419,6.631,1.469
			c0.678,1.032,1.291,1.065,2.236,0.657c0.503-0.217,1.024-0.436,1.558-0.526c1.836-0.309,1.702-1.241,0.975-2.57
			c-2.469-4.52-9.621-6.253-14.581-3.489c-2.681,1.494-4.141,3.766-4.152,6.839c-0.012,3.083,1.437,5.352,4.156,6.812
			c2.002,1.075,4.161,1.746,6.3,2.464c1.046,0.351,2.073,0.744,2.98,1.378c1.026,0.716,1.573,1.691,1.402,2.979
			c-0.178,1.339-0.918,2.21-2.195,2.665c-2.613,0.931-5.699,0.335-7.209-2.069c-1.317-2.097-2.603-2.095-4.425-1.117
			c-0.32,0.172-0.672,0.309-1.026,0.386c-1.205,0.263-1.152,0.896-0.724,1.864C1041.777,487.842,1045.986,490.409,1050.934,490.368z
			 M873.168,460.229c-1.501,0.112-3.021,0.244-4.444,0.868c-3.038,1.332-4.949,3.498-5.104,6.949
			c-0.159,3.53,1.531,5.899,4.619,7.422c1.814,0.895,3.74,1.483,5.632,2.165c0.858,0.309,1.715,0.644,2.526,1.057
			c1.435,0.73,2.227,1.848,1.969,3.555c-0.253,1.673-1.43,2.34-2.88,2.652c-2.784,0.599-5.221-0.189-6.729-2.568
			c-1.078-1.701-2.114-1.877-3.674-0.976c-0.26,0.15-0.569,0.217-0.855,0.322c-2.033,0.748-2.065,0.839-1.003,2.815
			c3.227,5.999,12.534,7.887,17.883,3.628c4.452-3.545,4.12-10.526-0.657-13.616c-1.548-1.001-3.25-1.666-4.992-2.249
			c-1.619-0.541-3.274-1.02-4.73-1.939c-1.8-1.136-1.734-3.224,0.092-4.254c1.908-1.076,5.473-0.477,6.665,1.336
			c0.696,1.06,1.327,1.193,2.363,0.733c0.666-0.296,1.372-0.522,2.08-0.698c1.075-0.267,1.158-0.82,0.706-1.733
			C880.696,461.768,877.294,460.416,873.168,460.229z M811.184,431.524c0.054,4.282,0.741,7.834,2.957,10.943
			c4.201,5.895,13.702,6.074,18.1,0.352c2.278-2.964,2.253-2.904-1.184-4.33c-1.381-0.573-2.222-0.707-3.295,0.736
			c-2.446,3.285-6.804,3.014-8.798-0.568c-2.521-4.529-2.521-9.266,0.059-13.79c1.716-3.01,6.239-3.551,8.314-0.882
			c1.343,1.726,2.382,1.594,3.877,0.646c0.306-0.194,0.65-0.354,0.999-0.449c1.795-0.489,1.513-1.411,0.685-2.644
			c-3.916-5.827-13.415-6.317-18.035-0.895C812.05,423.941,811.342,427.918,811.184,431.524z M850.65,429.161
			c-1.708-2.788-3.269-5.331-4.825-7.879c-2.506-4.106-2.504-4.074-7.249-3.942c-1.198,0.033-1.383,0.284-0.744,1.317
			c2.117,3.425,3.959,7.045,6.315,10.293c2.979,4.107,4.112,8.471,3.734,13.503c-0.317,4.221-0.066,4.197,4.203,4.128
			c1.131-0.018,1.478-0.372,1.456-1.471c-0.057-2.807,0.013-5.616-0.034-8.423c-0.018-1.082,0.246-2.008,0.812-2.93
			c2.585-4.213,5.147-8.44,7.659-12.696c0.666-1.128,2.206-2.454,1.665-3.395c-0.512-0.89-2.471-0.146-3.776-0.317
			c-1.456-0.191-2.319,0.367-3.057,1.659C854.906,422.341,852.839,425.579,850.65,429.161z M954.177,477.906c0,2.625,0,5.25,0,7.876
			c0,4.055,0,3.999,4.055,4.004c1.326,0.002,1.637-0.459,1.626-1.695c-0.052-5.861-0.023-11.722-0.023-17.583
			c0-4.446,0-4.446,4.517-4.446c3.754,0,3.69,0,3.735-3.766c0.017-1.378-0.392-1.767-1.758-1.749
			c-5.555,0.072-11.111,0.03-16.667,0.03c-3.996,0-3.996,0-3.863,3.982c0.004,0.122,0.013,0.245,0.002,0.366
			c-0.078,0.894,0.38,1.163,1.211,1.145c1.648-0.035,3.307,0.106,4.942-0.04c1.722-0.154,2.358,0.328,2.268,2.171
			C954.062,471.429,954.177,474.67,954.177,477.906z M1017.5,475.117c0,4.331,0.04,8.662-0.025,12.991
			c-0.019,1.26,0.343,1.69,1.641,1.672c4.756-0.068,9.515-0.027,14.272-0.027c3.943,0,3.896,0,3.874-3.991
			c-0.006-1.192-0.355-1.589-1.55-1.567c-3.475,0.064-6.959-0.098-10.427,0.083c-1.807,0.095-2.103-0.55-2.082-2.143
			c0.08-5.854,0.031-11.71,0.031-17.566c0-4.114,0-4.069-4.21-4.021c-1.203,0.014-1.567,0.38-1.55,1.577
			C1017.539,466.455,1017.5,470.787,1017.5,475.117z M973.627,474.968c0,3.654,0,7.309,0,10.963c0,3.854,0.002,3.768,3.824,3.862
			c1.622,0.04,1.882-0.583,1.871-2.01c-0.059-7.735-0.028-15.47-0.028-23.205c0-4.073-0.001-4.002-4.009-4.04
			c-1.459-0.014-1.703,0.542-1.683,1.822C973.668,466.563,973.627,470.766,973.627,474.968z"/>
		<path fill="#84C9DE" d="M1145.72,556.867c-2.233,0.564-4.489,1.051-6.696,1.704c-15.155,4.48-29.254,11.369-43.024,18.989
			c-2.553,1.413-5.021,2.98-7.527,4.476c-11.322,6.605-21.85,14.287-31.366,23.315c-19.109,18.131-34.611,39.05-47.665,61.851
			c-0.242,0.424-0.466,0.858-0.72,1.275c-0.241,0.396-0.585,0.625-1.071,0.495c-0.408-0.109-0.587-0.449-0.634-0.815
			c-0.078-0.604-0.1-1.216-0.128-1.825c-0.802-17.46,2.721-34.152,9.533-50.111c11.666-27.331,28.926-50.521,52.331-68.98
			c6.107-4.816,12.855-8.635,19.84-12.033c8.748-3.838,17.768-6.669,27.305-7.798c4.204-0.498,7.833,0.65,11.219,2.942
			c3.794,2.568,6.762,5.964,9.444,9.626c3.145,4.295,5.769,8.901,8.057,13.703c0.404,0.848,0.409,0.845,1.103,0.99
			C1145.72,555.402,1145.72,556.135,1145.72,556.867z"/>
		<path fill="#0D0D0C" d="M779.367,662.011c0.34,0.244,0.51,0.488,0,0.733C779.367,662.499,779.367,662.255,779.367,662.011z"/>
		<path fill="#0D0D0C" d="M809.042,692.784c0.244-0.516,0.488-0.327,0.733,0C809.53,692.784,809.286,692.784,809.042,692.784z"/>
		<path fill="#0D0D0C" d="M809.774,383.949c-0.122,0.313-0.244,0.373-0.366,0C809.53,383.949,809.652,383.949,809.774,383.949z"/>
		<path fill="#0D0D0C" d="M779.367,414.356c0.371,0.122,0.298,0.244,0,0.366C779.367,414.6,779.367,414.478,779.367,414.356z"/>
		<path fill="#0D0D0C" d="M1058.528,383.949c-0.122,0.375-0.244,0.325-0.366,0C1058.284,383.949,1058.406,383.949,1058.528,383.949z
			"/>
		<path fill="#0D0D0C" d="M1058.162,692.784c0.122-0.315,0.244-0.373,0.366,0C1058.406,692.784,1058.284,692.784,1058.162,692.784z"
			/>
		<path fill="#A3C85B" d="M1004.01,669.735c-0.785-0.129-1.085-0.797-1.498-1.295c-7.655-9.252-14.15-19.283-19.892-29.81
			c-7.735-14.182-14.127-28.948-19.134-44.31c-0.132-0.406-0.26-0.814-0.386-1.222c-0.161-0.524-0.424-1.113,0.122-1.519
			c0.709-0.527,1.109,0.163,1.523,0.554c5.911,5.594,12.788,9.36,20.826,10.817c11.022,1.998,21.48-0.204,31.615-4.499
			c1.739-0.737,3.413-1.629,5.094-2.495c0.633-0.326,1.202-0.655,1.796,0.009c0.588,0.658,0.014,1.136-0.298,1.611
			c-10.286,15.656-15.272,33.13-17.687,51.488c-0.829,6.303-1.242,12.631-1.197,18.989
			C1004.899,668.752,1005.068,669.592,1004.01,669.735z"/>
		<path fill="#82C5DB" d="M868.805,431.99c0-4.333,0.043-8.666-0.027-12.997c-0.021-1.283,0.374-1.681,1.656-1.656
			c3.965,0.075,7.934-0.029,11.898,0.05c5.114,0.103,8.146,2.392,8.81,6.542c0.412,2.576-0.142,4.862-2.236,6.591
			c-0.541,0.447-0.901,0.643-0.057,1.274c3.065,2.292,3.942,5.163,2.881,8.862c-0.938,3.272-3.708,5.671-7.414,5.842
			c-4.811,0.222-9.638,0.085-14.458,0.139c-1.149,0.013-1.057-0.717-1.057-1.466C868.807,440.777,868.805,436.383,868.805,431.99z
			 M879.474,434.176c-1.313,0-2.414,0.045-3.509-0.014c-0.969-0.052-1.292,0.344-1.261,1.283c0.052,1.585,0.027,3.174,0.009,4.76
			c-0.008,0.713,0.18,1.193,1.01,1.165c2.557-0.086,5.126,0.217,7.673-0.202c1.99-0.328,2.923-1.278,3.037-3.061
			c0.127-1.978-0.765-3.138-2.8-3.687C882.19,434.032,880.718,434.241,879.474,434.176z M879.09,422.75v-0.026
			c-1.156,0-2.311,0.014-3.466-0.005c-0.675-0.011-1.004,0.244-0.992,0.958c0.025,1.398,0.016,2.797,0.007,4.196
			c-0.004,0.613,0.297,0.885,0.888,0.875c2.43-0.042,4.872,0.048,7.286-0.171c1.82-0.165,2.728-1.451,2.647-3.13
			c-0.074-1.546-1.09-2.538-2.905-2.679C881.406,422.678,880.245,422.75,879.09,422.75z"/>
		<path fill="#A1C45B" d="M934.809,478.117c0-5.246,0.06-10.493-0.037-15.737c-0.029-1.574,0.492-1.941,1.977-1.909
			c3.726,0.082,3.727,0.013,3.727,3.781c0,7.876-0.028,15.752,0.027,23.627c0.009,1.332-0.35,1.704-1.723,1.833
			c-2.469,0.232-3.995-0.555-5.342-2.721c-2.931-4.714-6.177-9.232-9.312-13.817c-0.288-0.421-0.429-1.014-1.074-1.173
			c-0.478,0.605-0.254,1.293-0.257,1.924c-0.022,4.701-0.053,9.403,0.015,14.103c0.019,1.303-0.421,1.647-1.677,1.651
			c-3.982,0.011-3.982,0.059-3.982-3.881c0-7.754,0.042-15.508-0.035-23.261c-0.015-1.557,0.344-1.987,1.988-2.114
			c2.528-0.195,3.954,0.726,5.277,2.829c3.204,5.091,6.679,10.013,10.045,15.002C934.554,478.208,934.681,478.163,934.809,478.117z"
			/>
		<path fill="#82C5DB" d="M925.199,431.94c0-4.394,0.028-8.788-0.02-13.181c-0.012-1.084,0.275-1.506,1.432-1.49
			c4.332,0.061,8.666-0.021,12.998,0.048c4.422,0.07,7.573,2.348,8.598,6.064c1.224,4.436-0.205,8.525-3.931,10.851
			c-0.952,0.594-1.056,1.047-0.568,2.004c1.496,2.934,2.872,5.929,4.349,8.873c0.497,0.991,0.644,1.45-0.803,1.474
			c-4.786,0.081-4.785,0.132-6.923-4.141c-0.873-1.746-1.817-3.461-2.596-5.247c-0.506-1.161-1.167-1.611-2.48-1.589
			c-4.14,0.07-4.141,0.009-4.141,4.098c0,1.892-0.028,3.784,0.01,5.675c0.017,0.857-0.301,1.132-1.165,1.194
			c-4.759,0.34-4.758,0.364-4.758-4.38C925.199,438.775,925.199,435.358,925.199,431.94z M935.825,430.18
			c0.953,0,1.989-0.008,3.025,0.002c2.366,0.021,3.614-1.168,3.703-3.54c0.09-2.411-1.172-3.834-3.56-3.904
			c-1.888-0.055-3.779-0.03-5.668-0.014c-2.79,0.023-2.543-0.369-2.51,2.544c0.018,1.566-0.691,3.594,0.333,4.576
			C932.16,430.814,934.174,430.005,935.825,430.18z"/>
		<path fill="#A1C45B" d="M811.355,475.103c0-4.33,0.035-8.66-0.022-12.989c-0.016-1.196,0.361-1.574,1.566-1.562
			c5.61,0.055,11.221,0.048,16.831,0.004c1.117-0.009,1.623,0.206,1.639,1.487c0.049,3.95,0.105,3.949-3.915,3.949
			c-2.988,0-5.977,0.028-8.964-0.014c-0.974-0.014-1.38,0.23-1.423,1.314c-0.188,4.678-0.226,4.676,4.465,4.676
			c4.318,0,4.292-0.002,3.966,4.255c-0.066,0.863-0.356,1.177-1.206,1.162c-1.951-0.035-3.904,0.036-5.854-0.026
			c-1.044-0.033-1.405,0.35-1.359,1.374c0.063,1.4,0.081,2.809-0.005,4.206c-0.072,1.175,0.438,1.432,1.501,1.419
			c3.963-0.046,7.928,0.02,11.891-0.041c1.214-0.019,1.713,0.254,1.711,1.6c-0.004,3.836,0.057,3.836-3.847,3.836
			c-5.062,0-10.124-0.059-15.184,0.036c-1.504,0.028-1.845-0.481-1.819-1.88C811.405,483.642,811.355,479.372,811.355,475.103z"/>
		<path fill="#82C5DB" d="M898.502,431.947c0-4.27,0.044-8.541-0.026-12.81c-0.021-1.296,0.242-1.831,1.693-1.809
			c5.55,0.084,11.103,0.081,16.653,0.001c1.418-0.02,1.735,0.458,1.719,1.785c-0.044,3.675,0.013,3.676-3.629,3.676
			c-3.05,0-6.101,0.032-9.15-0.017c-1.035-0.017-1.5,0.189-1.529,1.386c-0.111,4.602-0.158,4.601,4.529,4.601
			c4.117,0,4.073-0.002,3.917,4.13c-0.042,1.102-0.477,1.326-1.438,1.3c-1.829-0.049-3.661,0.033-5.489-0.031
			c-1.053-0.037-1.621,0.208-1.498,1.401c0.185,1.797-0.754,4.09,0.412,5.271c1.003,1.015,3.251,0.258,4.947,0.283
			c2.805,0.042,5.612,0.037,8.418-0.001c0.918-0.013,1.259,0.264,1.309,1.24c0.216,4.203,0.25,4.201-4.008,4.201
			c-5.063,0-10.127-0.037-15.19,0.026c-1.262,0.016-1.689-0.337-1.667-1.638C898.548,440.611,898.502,436.279,898.502,431.947z"/>
		<path fill="#A1C45B" d="M890.57,475.173c0-4.272,0.038-8.545-0.023-12.816c-0.018-1.279,0.241-1.837,1.699-1.815
			c5.552,0.085,11.107,0.064,16.66,0.011c1.204-0.012,1.557,0.371,1.566,1.566c0.031,3.875,0.077,3.874-3.81,3.874
			c-2.929,0-5.86,0.049-8.788-0.023c-1.212-0.03-1.705,0.243-1.71,1.591c-0.014,4.408-0.071,4.408,4.375,4.408
			c0.061,0,0.122,0,0.183,0c4.153,0,4.122-0.002,3.886,4.165c-0.054,0.958-0.381,1.277-1.308,1.255
			c-1.891-0.044-3.786,0.045-5.674-0.033c-1.138-0.047-1.53,0.37-1.438,1.474c0.145,1.75-0.708,3.962,0.338,5.138
			c1.005,1.131,3.23,0.312,4.915,0.354c2.806,0.07,5.615,0.061,8.421-0.001c1.102-0.024,1.463,0.322,1.488,1.45
			c0.087,3.984,0.13,3.983-3.886,3.983c-4.943,0-9.889-0.083-14.829,0.044c-1.76,0.045-2.135-0.562-2.096-2.175
			C890.636,483.475,890.57,479.323,890.57,475.173z"/>
		<path fill="#A1C45B" d="M1009.25,489.753c-3.614-0.056-2.706,0.45-3.947-2.722c-1.325-3.385-1.3-3.395-4.968-3.395
			c-2.013,0-4.028,0.065-6.037-0.025c-1.124-0.05-1.727,0.347-1.951,1.416c-0.049,0.237-0.15,0.464-0.233,0.693
			c-1.463,4.071-1.464,4.019-5.767,4.062c-1.445,0.014-1.802-0.221-1.224-1.702c3.08-7.894,6.066-15.824,9.085-23.742
			c0.13-0.342,0.253-0.687,0.392-1.025c1.344-3.265,0.452-2.545,3.952-2.782c1.988-0.134,2.849,0.591,3.52,2.42
			c2.939,8.012,6.042,15.964,9.08,23.94C1012.241,489.75,1012.234,489.753,1009.25,489.753z M998.718,469.356
			c-0.157-0.018-0.315-0.036-0.472-0.053c-1.073,2.743-2.135,5.49-3.225,8.226c-0.313,0.785,0.029,0.957,0.724,0.952
			c1.759-0.013,3.519-0.02,5.278,0.005c0.735,0.01,1.007-0.213,0.727-0.96C1000.73,474.806,999.728,472.08,998.718,469.356z"/>
		<path fill="#A1C45B" d="M847.38,490.371c-5.026-0.186-8.684-2.246-10.838-6.736c-0.449-0.936-0.319-1.484,0.726-1.726
			c0.177-0.041,0.346-0.117,0.519-0.177c1.036-0.357,2.074-1.001,3.107-0.991c1.112,0.011,1.274,1.467,1.986,2.188
			c2.007,2.034,4.336,2.594,7.032,1.778c1.294-0.392,2.047-1.281,2.245-2.615c0.202-1.361-0.383-2.374-1.489-3.105
			c-0.921-0.609-1.944-0.998-2.992-1.343c-2.199-0.725-4.427-1.401-6.442-2.574c-5.19-3.021-5.265-10.093-0.157-13.266
			c4.983-3.095,12.402-1.433,15.019,3.297c0.784,1.416,0.699,2.232-1.036,2.536c-0.534,0.093-1.061,0.296-1.556,0.525
			c-0.98,0.454-1.562,0.271-2.222-0.701c-1.258-1.852-4.652-2.479-6.641-1.432c-1.886,0.993-2.029,3.054-0.247,4.227
			c1.753,1.153,3.803,1.626,5.75,2.322c1.386,0.496,2.713,1.093,3.959,1.87c2.792,1.742,4.131,4.291,3.888,7.548
			c-0.246,3.29-1.889,5.745-4.906,7.183C851.231,490.061,849.242,490.334,847.38,490.371z"/>
		<path fill="#A1C45B" d="M1050.934,490.368c-4.948,0.041-9.157-2.526-10.962-6.604c-0.428-0.967-0.481-1.6,0.724-1.864
			c0.354-0.077,0.706-0.214,1.026-0.386c1.822-0.977,3.108-0.98,4.425,1.117c1.51,2.405,4.595,3.001,7.209,2.069
			c1.277-0.455,2.017-1.326,2.195-2.665c0.171-1.288-0.376-2.263-1.402-2.979c-0.907-0.633-1.933-1.026-2.98-1.378
			c-2.14-0.718-4.298-1.389-6.3-2.464c-2.719-1.461-4.167-3.73-4.156-6.812c0.012-3.073,1.471-5.345,4.152-6.839
			c4.96-2.763,12.112-1.03,14.581,3.489c0.726,1.329,0.861,2.26-0.975,2.57c-0.535,0.09-1.056,0.309-1.558,0.526
			c-0.944,0.408-1.558,0.375-2.236-0.657c-1.24-1.888-4.616-2.519-6.631-1.469c-1.898,0.989-2.047,3.053-0.278,4.236
			c1.125,0.752,2.415,1.165,3.684,1.601c2.078,0.715,4.17,1.388,6.045,2.582c2.779,1.768,4.109,4.3,3.875,7.57
			c-0.232,3.239-1.851,5.632-4.763,7.094C1054.832,489.998,1052.905,490.3,1050.934,490.368z"/>
		<path fill="#A1C45B" d="M873.168,460.229c4.126,0.187,7.528,1.538,9.469,5.468c0.451,0.913,0.368,1.466-0.706,1.733
			c-0.708,0.176-1.414,0.402-2.08,0.698c-1.036,0.46-1.667,0.327-2.363-0.733c-1.192-1.813-4.758-2.412-6.665-1.336
			c-1.826,1.03-1.892,3.118-0.092,4.254c1.456,0.919,3.112,1.399,4.73,1.939c1.742,0.582,3.445,1.247,4.992,2.249
			c4.776,3.09,5.109,10.071,0.657,13.616c-5.349,4.26-14.656,2.371-17.883-3.628c-1.062-1.975-1.03-2.067,1.003-2.815
			c0.286-0.105,0.595-0.172,0.855-0.322c1.56-0.901,2.596-0.725,3.674,0.976c1.508,2.379,3.945,3.167,6.729,2.568
			c1.45-0.312,2.627-0.98,2.88-2.652c0.258-1.707-0.534-2.825-1.969-3.555c-0.812-0.413-1.668-0.747-2.526-1.057
			c-1.893-0.682-3.818-1.27-5.632-2.165c-3.088-1.523-4.778-3.892-4.619-7.422c0.155-3.45,2.066-5.617,5.104-6.949
			C870.147,460.474,871.667,460.341,873.168,460.229z"/>
		<path fill="#82C5DB" d="M811.184,431.524c0.158-3.606,0.867-7.583,3.678-10.883c4.62-5.422,14.119-4.932,18.035,0.895
			c0.828,1.232,1.11,2.155-0.685,2.644c-0.349,0.095-0.693,0.255-0.999,0.449c-1.494,0.948-2.534,1.08-3.877-0.646
			c-2.076-2.669-6.598-2.128-8.314,0.882c-2.579,4.525-2.58,9.261-0.059,13.79c1.994,3.582,6.352,3.853,8.798,0.568
			c1.074-1.442,1.914-1.309,3.295-0.736c3.437,1.426,3.462,1.367,1.184,4.33c-4.398,5.722-13.899,5.542-18.1-0.352
			C811.925,439.358,811.238,435.806,811.184,431.524z"/>
		<path fill="#82C5DB" d="M850.65,429.161c2.189-3.583,4.255-6.821,6.159-10.152c0.739-1.293,1.601-1.851,3.057-1.659
			c1.305,0.171,3.264-0.573,3.776,0.317c0.541,0.941-0.999,2.267-1.665,3.395c-2.512,4.256-5.075,8.483-7.659,12.696
			c-0.566,0.923-0.83,1.848-0.812,2.93c0.047,2.807-0.022,5.616,0.034,8.423c0.022,1.098-0.325,1.452-1.456,1.471
			c-4.269,0.069-4.52,0.093-4.203-4.128c0.378-5.031-0.755-9.395-3.734-13.503c-2.356-3.248-4.198-6.868-6.315-10.293
			c-0.638-1.032-0.454-1.283,0.744-1.317c4.745-0.132,4.743-0.163,7.249,3.942C847.381,423.83,848.943,426.373,850.65,429.161z"/>
		<path fill="#A1C45B" d="M954.177,477.906c0-3.236-0.115-6.477,0.044-9.705c0.091-1.842-0.546-2.325-2.268-2.171
			c-1.635,0.146-3.295,0.005-4.942,0.04c-0.832,0.017-1.289-0.251-1.211-1.145c0.01-0.121,0.002-0.244-0.002-0.366
			c-0.132-3.982-0.132-3.982,3.863-3.982c5.556,0,11.112,0.042,16.667-0.03c1.366-0.018,1.775,0.371,1.758,1.749
			c-0.045,3.765,0.019,3.766-3.735,3.766c-4.517,0-4.517,0-4.517,4.446c0,5.861-0.029,11.722,0.023,17.583
			c0.011,1.236-0.3,1.697-1.626,1.695c-4.054-0.005-4.055,0.051-4.055-4.004C954.177,483.156,954.177,480.531,954.177,477.906z"/>
		<path fill="#A1C45B" d="M1017.5,475.117c0-4.331,0.038-8.662-0.025-12.991c-0.017-1.197,0.347-1.564,1.55-1.577
			c4.21-0.048,4.21-0.093,4.21,4.021c0,5.855,0.048,11.711-0.031,17.566c-0.022,1.593,0.275,2.237,2.082,2.143
			c3.467-0.182,6.951-0.019,10.427-0.083c1.194-0.022,1.543,0.375,1.55,1.567c0.022,3.991,0.07,3.991-3.874,3.991
			c-4.757,0-9.516-0.041-14.272,0.027c-1.299,0.019-1.661-0.412-1.641-1.672C1017.541,483.779,1017.5,479.448,1017.5,475.117z"/>
		<path fill="#A1C45B" d="M973.627,474.968c0-4.202,0.042-8.406-0.025-12.607c-0.02-1.28,0.224-1.836,1.683-1.822
			c4.008,0.037,4.009-0.033,4.009,4.04c0,7.735-0.031,15.47,0.028,23.205c0.011,1.427-0.249,2.05-1.871,2.01
			c-3.822-0.094-3.824-0.008-3.824-3.862C973.627,482.277,973.627,478.622,973.627,474.968z"/>
		<path fill="#333053" d="M879.474,434.176c1.244,0.064,2.716-0.145,4.159,0.245c2.035,0.549,2.927,1.709,2.8,3.687
			c-0.114,1.783-1.047,2.733-3.037,3.061c-2.548,0.42-5.116,0.116-7.673,0.202c-0.831,0.028-1.018-0.452-1.01-1.165
			c0.018-1.587,0.042-3.175-0.009-4.76c-0.031-0.939,0.293-1.335,1.261-1.283C877.06,434.222,878.161,434.176,879.474,434.176z"/>
		<path fill="#333053" d="M879.09,422.75c1.155,0,2.316-0.073,3.464,0.017c1.815,0.141,2.831,1.134,2.905,2.679
			c0.081,1.68-0.827,2.965-2.647,3.13c-2.414,0.219-4.856,0.13-7.286,0.171c-0.591,0.01-0.892-0.262-0.888-0.875
			c0.009-1.399,0.019-2.798-0.007-4.196c-0.013-0.713,0.317-0.969,0.992-0.958c1.155,0.019,2.311,0.005,3.466,0.005V422.75z"/>
		<path fill="#333053" d="M935.825,430.18c-1.651-0.175-3.665,0.635-4.677-0.337c-1.024-0.982-0.315-3.01-0.333-4.576
			c-0.033-2.913-0.28-2.521,2.51-2.544c1.889-0.016,3.78-0.041,5.668,0.014c2.387,0.069,3.65,1.493,3.56,3.904
			c-0.089,2.372-1.336,3.561-3.703,3.54C937.814,430.172,936.778,430.18,935.825,430.18z"/>
		<path fill="#333053" d="M998.718,469.356c1.009,2.724,2.011,5.45,3.032,8.17c0.28,0.747,0.008,0.971-0.727,0.96
			c-1.759-0.025-3.519-0.018-5.278-0.005c-0.696,0.005-1.037-0.167-0.724-0.952c1.09-2.736,2.152-5.483,3.225-8.226
			C998.404,469.32,998.561,469.338,998.718,469.356z"/>
	</g>
	<g>
		<path fill="#F5F6F6" d="M810.039,518.338l-0.045-0.098c5.358-0.456,10.716-0.287,16.074-0.028c7.527,2.708,9.498,8.59,5.277,15.75
			c-0.391,0.393-0.782,0.787-1.173,1.18c-0.237,0.209-0.474,0.419-0.713,0.627c-0.62-0.017-1.036,0.28-1.29,0.829
			c-0.163-0.014-0.32,0.01-0.472,0.069c-3.21,0.851-6.493,0.601-9.742,0.509c-1.664-0.047-2.057,0.447-1.98,2.026
			c0.143,2.945,0.073,5.9,0.091,8.851c-0.134,0.148-0.269,0.296-0.403,0.445c-0.336,0.028-0.672,0.057-1.009,0.085
			c-0.976-0.174-1.956-0.396-2.848,0.257c-0.146-0.961-0.831-0.593-1.377-0.571c-0.149-0.233-0.297-0.466-0.446-0.699
			C810.003,537.826,810.021,528.082,810.039,518.338z M816.727,523.676c-0.162,0.02-0.454,0.009-0.468,0.064
			c-0.567,2.359-0.135,4.752-0.222,7.13c-0.026,0.703,0.523,0.785,1.067,0.751c2.65-0.168,5.332,0.408,7.958-0.328
			c2.387-0.877,2.555-2.811,2.168-4.864c-0.408-2.165-2.055-2.831-4.041-2.836C821.036,523.587,818.881,523.646,816.727,523.676z"/>
		<path fill="#F5F6F6" d="M870.006,521.466c0.003,0.881,0.006,1.762,0.009,2.643c0.005,4.335,0.01,8.671,0.015,13.006
			c0.013,4.38,1.935,6.254,6.375,6.217c4.266-0.036,6.149-1.954,6.087-6.201c0.018-6.259,0.035-12.518,0.053-18.777
			c2.02-0.488,4.037-0.556,6.05,0.039c-0.051,6.925-0.103,13.851-0.154,20.776c-1.634,6.635-5.355,9.699-11.876,9.777
			c-6.851,0.082-10.555-2.814-12.454-9.738c-0.029-7.01-0.058-14.02-0.086-21.03c2.012,0.117,4.178-1.071,5.992,0.711
			C870.014,519.749,870.01,520.607,870.006,521.466z"/>
		<path fill="#F5F6F6" d="M905.624,517.538c4.212,0.145,7.468,1.543,9.506,5.202c0.664,1.191,0.816,1.893-0.807,2.382
			c-1.968,0.592-3.774,1.614-5.303-0.86c-0.587-0.949-1.925-1.13-3.073-1.156c-1.871-0.043-3.882,0.003-4.436,2.258
			c-0.571,2.326,1.47,2.866,3.019,3.531c2.465,1.058,5.118,1.635,7.504,2.921c3.741,2.016,5.351,4.802,4.96,8.908
			c-0.373,3.923-2.745,6.251-6.31,7.478c-6.149,2.116-12.559-0.229-15.44-5.545c-0.709-1.307-1.088-2.118,0.887-2.799
			c2.179-0.751,3.672-1.312,5.289,1.187c1.592,2.462,4.976,2.955,7.519,1.887c1.311-0.551,2.14-1.455,2.251-2.909
			c0.103-1.35-0.533-2.296-1.631-3.039c-1.319-0.891-2.833-1.297-4.287-1.852c-1.457-0.556-2.958-1.01-4.375-1.651
			c-3.88-1.756-5.699-4.672-5.323-8.357c0.364-3.562,3.208-6.472,7.168-7.26C903.758,517.664,904.809,517.627,905.624,517.538z"/>
		<path fill="#F5F6F6" d="M839.691,548.548c-0.79-0.573-0.502-1.422-0.503-2.161c-0.019-8.758-0.016-17.516-0.006-26.274
			c0.001-0.98-0.289-2.47,1.378-2.015c1.551,0.423,4.274-1.758,4.54,1.833c-0.026,6.95-0.002,13.901-0.116,20.849
			c-0.027,1.629,0.462,2.068,2.054,2.033c4.168-0.091,8.34-0.001,12.511,0.016c-0.187,1.906,0.642,3.905-0.52,5.722
			C852.582,548.549,846.137,548.548,839.691,548.548z"/>
	</g>
</g>
</svg>
