<?xml version="1.0" encoding="utf-8"?>
<!-- Generator: Adobe Illustrator 17.0.0, SVG Export Plug-In . SVG Version: 6.00 Build 0)  -->
<!DOCTYPE svg PUBLIC "-//W3C//DTD SVG 1.1//EN" "http://www.w3.org/Graphics/SVG/1.1/DTD/svg11.dtd">
<svg version="1.1" id="Layer_1" xmlns="http://www.w3.org/2000/svg" xmlns:xlink="http://www.w3.org/1999/xlink" x="0px" y="0px"
	 width="1080px" height="1080px" viewBox="0 0 1080 1080" enable-background="new 0 0 1080 1080" xml:space="preserve">
<g>
	<path fill="#27AECD" d="M628.983,543.527c18.853,8.344,35.314,21.391,49.358,39.167c14.043,17.77,21.058,41.791,21.058,72.07
		c0,21.942-5.368,42.349-16.116,61.209c-10.762,18.873-27.316,34.225-49.703,46.07c-22.374,11.851-49.796,17.777-82.267,17.777
		h-1.98v52.653h-20.394v-53.975c-41.692-3.946-75.691-17.657-102.024-41.134c-26.32-23.47-41.027-52.54-44.096-87.21h63.84
		c1.754,18.428,9.765,35.653,24.035,51.67c14.243,16.023,33.667,25.994,58.246,29.947V563.277
		c-33.8-10.091-60.013-19.192-78.654-27.316c-18.654-8.111-34.889-20.945-48.707-38.503c-13.818-17.544-20.74-41.021-20.74-70.423
		c0-24.128,6.151-45.418,18.441-63.846c12.276-18.428,29.615-32.684,51.988-42.781c22.374-10.091,48.268-15.139,77.67-15.139
		v-56.605h20.394v57.263c40.815,3.076,73.286,15.585,97.414,37.52c24.128,21.942,38.397,48.488,42.781,79.637h-64.504
		c-3.069-16.667-10.961-31.594-23.689-44.754c-12.728-13.167-30.066-21.497-52.002-25.011v161.911
		C583.558,525.757,610.104,535.197,628.983,543.527z M466.733,476.392c14.256,12.29,34.996,23.038,62.205,32.252V352.002
		c-25.456,0-45.744,6.251-60.89,18.753c-15.133,12.509-22.706,30.392-22.706,53.643
		C445.343,446.778,452.478,464.116,466.733,476.392z M613.186,711.363c14.907-14.475,22.374-32.91,22.374-55.283
		c0-23.251-7.467-41.24-22.374-53.975c-14.92-12.721-36.205-23.463-63.853-32.245v163.226h0.664
		C577.194,733.086,598.266,725.845,613.186,711.363z"/>
</g>
</svg>
