<?xml version="1.0" encoding="utf-8"?>
<!-- Generator: Adobe Illustrator 17.0.0, SVG Export Plug-In . SVG Version: 6.00 Build 0)  -->
<!DOCTYPE svg PUBLIC "-//W3C//DTD SVG 1.1//EN" "http://www.w3.org/Graphics/SVG/1.1/DTD/svg11.dtd">
<svg version="1.1" id="Layer_1" xmlns="http://www.w3.org/2000/svg" xmlns:xlink="http://www.w3.org/1999/xlink" x="0px" y="0px"
	 width="512px" height="512px" viewBox="0 0 512 512" enable-background="new 0 0 512 512" xml:space="preserve">
<path opacity="0.4" fill="#27AECD" d="M258.986,96.59c9.854-10.71,18.751-22.367,29.583-31.805
	c44.687-38.934,107.953-46.266,155.468-18.885c48.088,27.711,75.979,89.326,66.783,145.546
	c-8.564,52.358-36.223,94.757-69.22,134.187c-51.512,61.555-114.247,110.614-178.833,157.41c-2.704,1.959-9.179,2.218-11.759,0.336
	c-76.232-55.589-150.435-113.481-205.376-191.823C21.691,257.419,3.526,220.533,0.848,178.169
	C-2.862,119.461,30.085,63.087,79.862,40.511c49.771-22.573,110.899-9.828,153.925,32.045
	C241.164,79.734,248.679,86.768,258.986,96.59z"/>
</svg>
