<?xml version="1.0" encoding="utf-8"?>
<!-- Generator: Adobe Illustrator 17.0.0, SVG Export Plug-In . SVG Version: 6.00 Build 0)  -->
<!DOCTYPE svg PUBLIC "-//W3C//DTD SVG 1.1//EN" "http://www.w3.org/Graphics/SVG/1.1/DTD/svg11.dtd">
<svg version="1.1" id="Layer_1" xmlns="http://www.w3.org/2000/svg" xmlns:xlink="http://www.w3.org/1999/xlink" x="0px" y="0px"
	 width="2000px" height="1500px" viewBox="0 0 2000 1500" enable-background="new 0 0 2000 1500" xml:space="preserve">
<g>
	<path fill="#82CADF" d="M1000.62,420.751c25.984,21.36,51.444,42.238,76.849,63.183
		c136.375,112.433,272.696,224.932,409.217,337.188c7.074,5.817,10.297,11.674,10.278,21.026
		c-0.282,133.158-0.138,266.317-0.231,399.476c-0.026,36.672-22.817,60.498-59.163,60.615
		c-106.222,0.342-212.447,0.121-318.67,0.101c-1.847,0-3.693-0.25-6.992-0.488c0-109.738,0-219.096,0-329.401
		c-74.449,0-147.415,0-221.832,0c0,109.631,0,219.024,0,329.921c-5.491,0-9.544,0-13.597,0c-102.809,0-205.618,0.037-308.428-0.018
		c-41.43-0.022-63.67-22.515-63.676-64.233c-0.019-131.261,0.105-262.523-0.221-393.784c-0.026-10.464,3.025-17.278,11.229-24.021
		c157.64-129.568,315.015-259.458,472.452-389.274C991.88,427.708,996.002,424.465,1000.62,420.751z"/>
	<path fill="#82CADF" d="M1000.366,344.454c-46.429,38.703-92.156,76.813-137.876,114.933
		C712.152,584.737,561.82,710.094,411.475,835.436c-20.824,17.361-34.756,15.888-52.109-5.121
		c-14.012-16.964-28.347-33.66-42.323-50.652c-15.624-18.997-14.366-32.9,4.574-48.686
		c147.446-122.896,294.952-245.72,442.428-368.579c53.335-44.432,107.111-88.35,159.785-133.552
		c31.811-27.299,67.01-38.556,107.306-26.482c14.41,4.318,28.48,12.841,40.225,22.471c64.823,53.151,128.878,107.239,193.2,161.001
		c3.104,2.594,6.244,5.147,11.302,9.313c0.307-6.242,0.665-10.17,0.668-14.098c0.038-48.186-0.003-96.373,0.035-144.559
		c0.022-27.879,8.856-36.72,36.751-36.745c48.945-0.044,97.891-0.053,146.836,0.003c27.394,0.031,36.609,9.436,36.612,37.19
		c0.013,109.653,0.158,219.306-0.257,328.957c-0.037,9.851,3.133,15.903,10.465,21.939
		c55.646,45.804,110.993,91.972,166.429,138.031c3.501,2.909,7.117,5.701,10.428,8.815c13.099,12.319,14.925,26.355,3.738,40.468
		c-16.49,20.802-33.494,41.235-51.06,61.135c-13.25,15.011-27.975,14.817-44.998,0.654
		c-49.868-41.487-99.653-83.074-149.474-124.617c-143.341-119.525-286.682-239.049-430.034-358.562
		C1008.523,350.858,1004.927,348.095,1000.366,344.454z"/>
</g>
</svg>
