<?xml version="1.0" encoding="utf-8"?>
<!-- Generator: Adobe Illustrator 17.0.0, SVG Export Plug-In . SVG Version: 6.00 Build 0)  -->
<!DOCTYPE svg PUBLIC "-//W3C//DTD SVG 1.1//EN" "http://www.w3.org/Graphics/SVG/1.1/DTD/svg11.dtd">
<svg version="1.1" id="Layer_1" xmlns="http://www.w3.org/2000/svg" xmlns:xlink="http://www.w3.org/1999/xlink" x="0px" y="0px"
	 width="1080px" height="1080px" viewBox="0 0 1080 1080" enable-background="new 0 0 1080 1080" xml:space="preserve">
<g>
	<path fill="#1F7E9B" d="M416.588,472.207c-16.334,38.561-31.827,75.137-47.979,113.268c114.548,0,227.628,0,342.844,0
		c-15.893-37.693-31.534-74.79-47.744-113.235c15.514,0,29.724-0.392,43.878,0.32c2.938,0.148,6.991,3.818,8.298,6.833
		c16.494,38.055,32.884,76.164,48.521,114.576c3.282,8.061,4.639,17.385,4.778,26.161c0.536,33.884,0.319,67.782,0.189,101.673
		c-0.112,29.147-18.987,47.806-48.397,47.82c-120.461,0.054-240.921,0.051-361.382,0.003c-30.298-0.012-48.693-18.348-48.783-48.561
		c-0.1-33.484-0.507-66.979,0.269-100.445c0.239-10.317,2.429-21.151,6.28-30.721c14.574-36.216,30.363-71.942,45.282-108.023
		c2.89-6.989,6.434-10.253,14.358-9.842C389.596,472.685,402.251,472.207,416.588,472.207z M712.757,677.839
		c-0.326-18.989-16.874-35.029-35.548-34.456c-18.632,0.571-34.144,16.33-34.135,34.678c0.01,19.069,15.999,35.05,34.994,34.975
		C697.042,712.961,713.081,696.687,712.757,677.839z"/>
	<path fill="#1F7E9B" d="M563.29,311.915c0,38.067,0,75.446,0,113.725c22.196,0,43.304,0,62.458,0
		c-28.932,28.9-58.399,58.332-87.088,86.989c-26.808-26.636-56.42-56.058-86.853-86.296c21.344,0,42.613,0,64.973,0
		c0-38.856,0-76.225,0-114.418C532.37,311.915,546.86,311.915,563.29,311.915z"/>
</g>
</svg>
