<?xml version="1.0" encoding="utf-8"?>
<!-- Generator: Adobe Illustrator 17.0.0, SVG Export Plug-In . SVG Version: 6.00 Build 0)  -->
<!DOCTYPE svg PUBLIC "-//W3C//DTD SVG 1.1//EN" "http://www.w3.org/Graphics/SVG/1.1/DTD/svg11.dtd">
<svg version="1.1" id="Layer_1" xmlns="http://www.w3.org/2000/svg" xmlns:xlink="http://www.w3.org/1999/xlink" x="0px" y="0px"
	 width="1920px" height="1080px" viewBox="0 0 1920 1080" enable-background="new 0 0 1920 1080" xml:space="preserve">
<g>
	<g>
		<g>
			<path fill="#EF7380" d="M610.392,470.014c-2.422-7.885-4.813-15.784-7.434-23.605c-1.552-4.629-5.758-7.455-10.587-7.528
				c-4.137-0.062-8.276-0.061-12.414-0.012c-5.488,0.067-9.582,2.899-11.292,8.14c-2.486,7.618-4.71,15.32-7.134,22.958
				c-0.799,2.518-0.798,4.815,2.023,5.694c2.763,0.859,3.828-1.222,4.52-3.513c1.893-6.268,3.772-12.542,5.807-18.766
				c0.386-1.18,1.458-2.135,2.214-3.195c0.292,1.371,1.053,2.838,0.797,4.099c-1.109,5.463-2.554,10.858-3.803,16.295
				c-1.24,5.398-2.392,10.817-3.595,16.288c0.968,0.303,1.444,0.623,1.86,0.558c4.029-0.631,4.478,1.568,4.378,4.883
				c-0.205,6.809-0.018,13.629-0.069,20.444c-0.022,2.901,1.347,4.696,4.112,5.118c2.417,0.368,4.264-1.971,4.382-5.163
				c0.027-0.728-0.016-1.459-0.016-2.189c0-6.816-0.059-13.632,0.083-20.444c0.018-0.847,1.108-1.67,1.701-2.504
				c0.621,0.826,1.464,1.572,1.798,2.5c0.311,0.865,0.086,1.924,0.086,2.898c-0.005,6.693-0.164,13.393,0.096,20.077
				c0.059,1.516,1.263,3.377,2.513,4.315c0.797,0.598,3.199,0.283,3.9-0.5c1.07-1.197,1.759-3.142,1.795-4.787
				c0.175-8.008,0.079-16.022,0.079-24.291c1.125-0.132,1.611-0.29,2.067-0.227c3.583,0.485,4.39-0.782,3.484-4.32
				c-2.41-9.407-4.513-18.895-6.577-28.385c-0.309-1.419,0.252-3.027,0.411-4.548c0.906,1.199,2.208,2.269,2.651,3.62
				c1.966,5.993,3.664,12.074,5.505,18.11c0.669,2.195,1.654,4.387,4.499,3.619C611.23,474.842,611.12,472.385,610.392,470.014z"/>
			<path fill="#EF7380" d="M585.695,435.012c5.587,0.169,10.041-4.015,10.179-9.563c0.135-5.413-4.007-9.889-9.308-10.058
				c-5.78-0.184-10.193,3.82-10.326,9.369C576.102,430.506,580.1,434.842,585.695,435.012z"/>
		</g>
	</g>
	<g>
		<g>
			<path fill="#EF7380" d="M659.228,488.012c-6.083-1.151-6.15-1.165-4.829-7.076c2.011-9.001,4.183-17.967,6.121-26.983
				c0.238-1.106-0.536-2.43-0.842-3.654c-0.72,0.95-1.762,1.796-2.106,2.867c-2.043,6.364-3.87,12.797-5.881,19.172
				c-1.097,3.477-4.13,4.765-5.839,2.417c-0.872-1.198-0.958-3.481-0.525-5.029c2.19-7.834,4.412-15.681,7.196-23.314
				c0.868-2.381,3.177-4.806,5.459-5.954c2.74-1.378,6.155-1.412,9.665-2.104c0.123,1.945,0.248,3.008,0.248,4.071
				c0.005,23.253-0.024,46.507,0.017,69.76c0.005,3.094-0.951,5.313-4.276,5.639c-2.691,0.263-4.233-1.829-4.242-5.524
				c-0.017-6.818,0.021-13.635,0.011-20.453C659.404,490.54,659.287,489.234,659.228,488.012z"/>
			<path fill="#EF7380" d="M681.696,450.432c-0.178,1.44-0.509,2.881-0.512,4.322c-0.036,18.731-0.023,37.463-0.028,56.194
				c0,1.094,0.39,2.535-0.153,3.211c-1.181,1.469-2.878,3.545-4.308,3.502c-1.395-0.042-3.121-2.207-3.948-3.825
				c-0.639-1.25-0.107-3.096-0.107-4.677c0.002-21.772,0.001-43.545,0.001-65.317c0-1.449,0-2.898,0-4.271
				c9.28-2.753,16.937,1.666,18.185,10.818c1.065,7.812,1.428,15.72,2.05,23.59c0.183,2.32-0.487,4.161-3.262,4.249
				c-2.729,0.087-3.537-1.746-3.725-3.999c-0.544-6.537-0.976-13.084-1.573-19.616c-0.135-1.479-0.762-2.914-1.163-4.369
				C682.667,450.306,682.181,450.369,681.696,450.432z"/>
			<path fill="#EF7380" d="M669.693,435.011c-5.416,0.037-10.106-4.583-10.042-9.893c0.063-5.312,4.476-9.669,9.792-9.668
				c5.66,0.001,10.225,4.301,10.212,9.619C679.641,430.585,675.243,434.973,669.693,435.011z"/>
		</g>
	</g>
	<g>
		<g>
			<path fill="#EF7380" d="M762.675,450.917c-0.123,1.62-0.351,3.239-0.354,4.859c-0.033,18.618-0.03,37.235-0.039,55.853
				c-0.002,3.911-1.498,5.992-4.354,5.807c-3.562-0.232-4.12-2.701-4.104-5.682c0.054-9.856,0.088-19.714-0.066-29.568
				c-0.018-1.176-1.235-2.334-1.897-3.5c-0.577,1.109-1.641,2.212-1.656,3.33c-0.138,9.976-0.08,19.955-0.106,29.933
				c-0.01,3.713-1.486,5.675-4.241,5.485c-3.493-0.242-4.25-2.693-4.249-5.651c0.006-18.739,0.013-37.479,0.002-56.218
				c-0.001-1.525-0.138-3.051-0.212-4.576c-0.454-0.131-0.908-0.261-1.362-0.392c-0.476,1.193-1.256,2.355-1.378,3.583
				c-0.652,6.532-1.145,13.08-1.683,19.623c-0.202,2.462-0.732,4.935-3.858,4.544c-2.956-0.37-3.206-2.749-2.964-5.31
				c0.675-7.136,1.303-14.277,1.806-21.427c0.514-7.293,5.426-12.165,12.749-12.289c4.987-0.085,9.977-0.064,14.966-0.019
				c6.226,0.056,11.55,4.662,12.203,10.849c0.829,7.856,1.381,15.742,2.064,23.613c0.22,2.538-0.643,4.564-3.35,4.655
				c-2.477,0.083-3.43-1.795-3.598-4.155c-0.447-6.302-0.92-12.604-1.505-18.894c-0.151-1.626-0.754-3.209-1.15-4.813
				C763.785,450.676,763.23,450.796,762.675,450.917z"/>
			<path fill="#EF7380" d="M761.786,425.663c-0.009,5.683-4.238,9.866-9.911,9.802c-5.635-0.063-9.751-4.308-9.728-10.031
				c0.023-5.444,4.481-9.659,10.139-9.584C757.731,415.922,761.794,420.119,761.786,425.663z"/>
		</g>
	</g>
	<g>
		<g>
			<path fill="#EF7380" d="M845.313,487.782c0,8.269,0.096,16.283-0.079,24.291c-0.036,1.645-0.725,3.591-1.795,4.787
				c-0.701,0.783-3.103,1.098-3.9,0.5c-1.25-0.939-2.454-2.8-2.513-4.316c-0.259-6.683-0.1-13.383-0.096-20.076
				c0.001-0.974,0.225-2.033-0.086-2.897c-0.334-0.929-1.177-1.675-1.798-2.5c-0.593,0.834-1.683,1.658-1.701,2.504
				c-0.142,6.813-0.083,13.629-0.083,20.445c0,0.73,0.043,1.461,0.016,2.19c-0.118,3.192-1.965,5.531-4.382,5.162
				c-2.765-0.421-4.134-2.217-4.112-5.117c0.051-6.815-0.136-13.635,0.069-20.444c0.1-3.316-0.349-5.514-4.378-4.883
				c-0.416,0.065-0.892-0.254-1.86-0.558c1.204-5.47,2.355-10.889,3.595-16.288c1.249-5.437,2.694-10.831,3.803-16.295
				c0.256-1.26-0.504-2.727-0.797-4.099c-0.756,1.059-1.828,2.015-2.214,3.195c-2.034,6.223-3.914,12.497-5.807,18.766
				c-0.691,2.29-1.757,4.373-4.52,3.512c-2.821-0.878-2.822-3.176-2.023-5.693c2.424-7.638,4.648-15.341,7.134-22.958
				c1.71-5.241,5.804-8.074,11.293-8.14c4.137-0.05,8.276-0.05,12.414,0.012c4.829,0.073,9.036,2.899,10.587,7.528
				c2.621,7.821,5.011,15.719,7.434,23.605c0.728,2.371,0.838,4.828-2.164,5.638c-2.845,0.768-3.83-1.425-4.499-3.62
				c-1.84-6.036-3.539-12.116-5.505-18.11c-0.443-1.351-1.745-2.42-2.651-3.619c-0.159,1.521-0.719,3.129-0.411,4.548
				c2.064,9.49,4.167,18.978,6.577,28.384c0.906,3.538,0.099,4.805-3.484,4.32C846.924,487.493,846.438,487.65,845.313,487.782z"/>
			<path fill="#EF7380" d="M844.998,425.448c-0.139,5.549-4.592,9.733-10.179,9.564c-5.594-0.17-9.592-4.505-9.455-10.252
				c0.133-5.55,4.545-9.553,10.326-9.368C840.99,415.561,845.133,420.037,844.998,425.448z"/>
		</g>
	</g>
	<g>
		<g>
			<path fill="#EF7380" d="M908.351,488.012c-6.083-1.151-6.15-1.165-4.829-7.076c2.011-9.001,4.183-17.967,6.121-26.983
				c0.238-1.106-0.536-2.43-0.842-3.654c-0.72,0.95-1.762,1.796-2.106,2.867c-2.043,6.364-3.87,12.797-5.881,19.172
				c-1.097,3.477-4.13,4.765-5.839,2.417c-0.872-1.198-0.958-3.481-0.525-5.029c2.19-7.834,4.412-15.681,7.196-23.314
				c0.868-2.381,3.177-4.806,5.459-5.954c2.74-1.378,6.155-1.412,9.665-2.104c0.123,1.945,0.248,3.008,0.248,4.071
				c0.005,23.253-0.024,46.507,0.017,69.76c0.005,3.094-0.951,5.313-4.276,5.639c-2.691,0.263-4.233-1.829-4.242-5.524
				c-0.017-6.818,0.021-13.635,0.011-20.453C908.528,490.54,908.411,489.234,908.351,488.012z"/>
			<path fill="#EF7380" d="M930.819,450.432c-0.178,1.44-0.509,2.881-0.512,4.322c-0.036,18.731-0.023,37.463-0.028,56.194
				c0,1.094,0.39,2.535-0.154,3.211c-1.181,1.469-2.878,3.545-4.308,3.502c-1.395-0.042-3.121-2.207-3.948-3.825
				c-0.639-1.25-0.107-3.096-0.107-4.677c0.002-21.772,0.001-43.545,0.001-65.317c0-1.449,0-2.898,0-4.271
				c9.28-2.753,16.937,1.666,18.185,10.818c1.065,7.812,1.428,15.72,2.05,23.59c0.183,2.32-0.487,4.161-3.262,4.249
				c-2.729,0.087-3.537-1.746-3.725-3.999c-0.544-6.537-0.976-13.084-1.573-19.616c-0.135-1.479-0.762-2.914-1.163-4.369
				C931.791,450.306,931.305,450.369,930.819,450.432z"/>
			<path fill="#EF7380" d="M918.816,435.011c-5.416,0.037-10.106-4.583-10.042-9.893c0.063-5.312,4.476-9.669,9.792-9.668
				c5.66,0.001,10.225,4.301,10.212,9.619C928.765,430.585,924.367,434.973,918.816,435.011z"/>
		</g>
	</g>
	<g>
		<g>
			<path fill="#EF7380" d="M1011.799,450.917c-0.123,1.62-0.351,3.239-0.354,4.859c-0.033,18.618-0.03,37.235-0.039,55.853
				c-0.002,3.911-1.498,5.992-4.354,5.807c-3.562-0.232-4.12-2.701-4.104-5.682c0.054-9.856,0.088-19.714-0.066-29.568
				c-0.018-1.176-1.235-2.334-1.897-3.5c-0.577,1.109-1.641,2.212-1.656,3.33c-0.138,9.976-0.08,19.955-0.106,29.933
				c-0.01,3.713-1.486,5.675-4.241,5.485c-3.494-0.242-4.25-2.693-4.249-5.651c0.006-18.739,0.013-37.479,0.002-56.218
				c-0.001-1.525-0.138-3.051-0.212-4.576c-0.454-0.131-0.908-0.261-1.362-0.392c-0.476,1.193-1.256,2.355-1.379,3.583
				c-0.652,6.532-1.145,13.08-1.683,19.623c-0.202,2.462-0.732,4.935-3.858,4.544c-2.956-0.37-3.206-2.749-2.964-5.31
				c0.675-7.136,1.303-14.277,1.806-21.427c0.514-7.293,5.426-12.165,12.749-12.289c4.987-0.085,9.977-0.064,14.966-0.019
				c6.226,0.056,11.55,4.662,12.203,10.849c0.829,7.856,1.381,15.742,2.064,23.613c0.22,2.538-0.643,4.564-3.35,4.655
				c-2.477,0.083-3.43-1.795-3.598-4.155c-0.447-6.302-0.92-12.604-1.505-18.894c-0.151-1.626-0.754-3.209-1.15-4.813
				C1012.909,450.676,1012.354,450.796,1011.799,450.917z"/>
			<path fill="#EF7380" d="M1010.909,425.663c-0.009,5.683-4.238,9.866-9.911,9.802c-5.635-0.063-9.751-4.308-9.728-10.031
				c0.023-5.444,4.481-9.659,10.139-9.584C1006.854,415.922,1010.918,420.119,1010.909,425.663z"/>
		</g>
	</g>
	<g>
		<g>
			<path fill="#EF7380" d="M1094.437,487.782c0,8.269,0.096,16.283-0.079,24.291c-0.036,1.645-0.725,3.591-1.795,4.787
				c-0.701,0.783-3.103,1.098-3.9,0.5c-1.25-0.939-2.454-2.8-2.513-4.316c-0.259-6.683-0.1-13.383-0.096-20.076
				c0.001-0.974,0.225-2.033-0.086-2.897c-0.334-0.929-1.177-1.675-1.798-2.5c-0.593,0.834-1.683,1.658-1.701,2.504
				c-0.142,6.813-0.083,13.629-0.083,20.445c0,0.73,0.043,1.461,0.016,2.19c-0.118,3.192-1.965,5.531-4.382,5.162
				c-2.765-0.421-4.134-2.217-4.112-5.117c0.051-6.815-0.136-13.635,0.069-20.444c0.1-3.316-0.349-5.514-4.378-4.883
				c-0.416,0.065-0.892-0.254-1.86-0.558c1.204-5.47,2.355-10.889,3.595-16.288c1.249-5.437,2.694-10.831,3.803-16.295
				c0.256-1.26-0.504-2.727-0.797-4.099c-0.756,1.059-1.828,2.015-2.214,3.195c-2.034,6.223-3.914,12.497-5.807,18.766
				c-0.691,2.29-1.757,4.373-4.52,3.512c-2.821-0.878-2.822-3.176-2.023-5.693c2.424-7.638,4.648-15.341,7.134-22.958
				c1.71-5.241,5.804-8.074,11.292-8.14c4.137-0.05,8.276-0.05,12.414,0.012c4.829,0.073,9.036,2.899,10.588,7.528
				c2.621,7.821,5.011,15.719,7.434,23.605c0.728,2.371,0.838,4.828-2.164,5.638c-2.845,0.768-3.829-1.425-4.499-3.62
				c-1.84-6.036-3.539-12.116-5.505-18.11c-0.443-1.351-1.745-2.42-2.651-3.619c-0.159,1.521-0.719,3.129-0.411,4.548
				c2.064,9.49,4.167,18.978,6.577,28.384c0.906,3.538,0.099,4.805-3.484,4.32C1096.048,487.493,1095.562,487.65,1094.437,487.782z"
				/>
			<path fill="#EF7380" d="M1094.121,425.448c-0.139,5.549-4.592,9.733-10.179,9.564c-5.594-0.17-9.592-4.505-9.455-10.252
				c0.133-5.55,4.546-9.553,10.326-9.368C1090.114,415.561,1094.257,420.037,1094.121,425.448z"/>
		</g>
	</g>
	<g>
		<g>
			<path fill="#EF7380" d="M1157.475,488.012c-6.083-1.151-6.15-1.165-4.829-7.076c2.011-9.001,4.183-17.967,6.121-26.983
				c0.238-1.106-0.536-2.43-0.842-3.654c-0.72,0.95-1.762,1.796-2.106,2.867c-2.043,6.364-3.87,12.797-5.881,19.172
				c-1.097,3.477-4.13,4.765-5.839,2.417c-0.872-1.198-0.958-3.481-0.525-5.029c2.191-7.834,4.412-15.681,7.196-23.314
				c0.868-2.381,3.177-4.806,5.459-5.954c2.74-1.378,6.156-1.412,9.665-2.104c0.123,1.945,0.248,3.008,0.249,4.071
				c0.005,23.253-0.024,46.507,0.017,69.76c0.005,3.094-0.951,5.313-4.276,5.639c-2.691,0.263-4.233-1.829-4.242-5.524
				c-0.017-6.818,0.021-13.635,0.011-20.453C1157.651,490.54,1157.535,489.234,1157.475,488.012z"/>
			<path fill="#EF7380" d="M1179.943,450.432c-0.178,1.44-0.509,2.881-0.512,4.322c-0.036,18.731-0.023,37.463-0.028,56.194
				c0,1.094,0.39,2.535-0.153,3.211c-1.181,1.469-2.878,3.545-4.308,3.502c-1.395-0.042-3.121-2.207-3.948-3.825
				c-0.639-1.25-0.107-3.096-0.107-4.677c0.001-21.772,0.001-43.545,0.001-65.317c0-1.449,0-2.898,0-4.271
				c9.28-2.753,16.937,1.666,18.185,10.818c1.065,7.812,1.428,15.72,2.05,23.59c0.183,2.32-0.487,4.161-3.262,4.249
				c-2.729,0.087-3.537-1.746-3.725-3.999c-0.544-6.537-0.976-13.084-1.573-19.616c-0.135-1.479-0.762-2.914-1.163-4.369
				C1180.914,450.306,1180.429,450.369,1179.943,450.432z"/>
			<path fill="#EF7380" d="M1167.94,435.011c-5.416,0.037-10.106-4.583-10.042-9.893c0.063-5.312,4.476-9.669,9.792-9.668
				c5.66,0.001,10.225,4.301,10.212,9.619C1177.888,430.585,1173.491,434.973,1167.94,435.011z"/>
		</g>
	</g>
	<g>
		<g>
			<path fill="#EF7380" d="M1260.923,450.917c-0.123,1.62-0.351,3.239-0.354,4.859c-0.033,18.618-0.03,37.235-0.039,55.853
				c-0.002,3.911-1.498,5.992-4.354,5.807c-3.562-0.232-4.12-2.701-4.104-5.682c0.054-9.856,0.088-19.714-0.066-29.568
				c-0.018-1.176-1.235-2.334-1.897-3.5c-0.577,1.109-1.641,2.212-1.656,3.33c-0.138,9.976-0.08,19.955-0.106,29.933
				c-0.01,3.713-1.486,5.675-4.241,5.485c-3.494-0.242-4.25-2.693-4.249-5.651c0.006-18.739,0.014-37.479,0.002-56.218
				c-0.001-1.525-0.138-3.051-0.212-4.576c-0.454-0.131-0.908-0.261-1.362-0.392c-0.476,1.193-1.256,2.355-1.379,3.583
				c-0.652,6.532-1.145,13.08-1.682,19.623c-0.202,2.462-0.732,4.935-3.858,4.544c-2.956-0.37-3.206-2.749-2.964-5.31
				c0.675-7.136,1.303-14.277,1.806-21.427c0.514-7.293,5.426-12.165,12.749-12.289c4.987-0.085,9.978-0.064,14.966-0.019
				c6.226,0.056,11.55,4.662,12.203,10.849c0.829,7.856,1.381,15.742,2.064,23.613c0.22,2.538-0.643,4.564-3.35,4.655
				c-2.477,0.083-3.43-1.795-3.598-4.155c-0.447-6.302-0.92-12.604-1.505-18.894c-0.151-1.626-0.754-3.209-1.15-4.813
				C1262.032,450.676,1261.478,450.796,1260.923,450.917z"/>
			<path fill="#EF7380" d="M1260.033,425.663c-0.009,5.683-4.238,9.866-9.911,9.802c-5.635-0.063-9.751-4.308-9.728-10.031
				c0.023-5.444,4.481-9.659,10.139-9.584C1255.978,415.922,1260.042,420.119,1260.033,425.663z"/>
		</g>
	</g>
	<g>
		<g>
			<path fill="#EF7380" d="M1343.561,487.782c0,8.269,0.096,16.283-0.079,24.291c-0.036,1.645-0.725,3.591-1.795,4.787
				c-0.701,0.783-3.103,1.098-3.9,0.5c-1.25-0.939-2.454-2.8-2.513-4.316c-0.259-6.683-0.1-13.383-0.096-20.076
				c0.001-0.974,0.225-2.033-0.086-2.897c-0.334-0.929-1.177-1.675-1.798-2.5c-0.593,0.834-1.683,1.658-1.701,2.504
				c-0.142,6.813-0.083,13.629-0.083,20.445c0,0.73,0.043,1.461,0.016,2.19c-0.118,3.192-1.965,5.531-4.382,5.162
				c-2.765-0.421-4.134-2.217-4.112-5.117c0.051-6.815-0.136-13.635,0.069-20.444c0.1-3.316-0.349-5.514-4.378-4.883
				c-0.416,0.065-0.892-0.254-1.86-0.558c1.204-5.47,2.355-10.889,3.595-16.288c1.249-5.437,2.694-10.831,3.803-16.295
				c0.256-1.26-0.504-2.727-0.797-4.099c-0.756,1.059-1.828,2.015-2.214,3.195c-2.034,6.223-3.914,12.497-5.807,18.766
				c-0.691,2.29-1.757,4.373-4.52,3.512c-2.821-0.878-2.822-3.176-2.023-5.693c2.424-7.638,4.648-15.341,7.134-22.958
				c1.71-5.241,5.804-8.074,11.292-8.14c4.137-0.05,8.276-0.05,12.414,0.012c4.829,0.073,9.036,2.899,10.588,7.528
				c2.621,7.821,5.011,15.719,7.434,23.605c0.728,2.371,0.838,4.828-2.164,5.638c-2.845,0.768-3.829-1.425-4.499-3.62
				c-1.84-6.036-3.539-12.116-5.505-18.11c-0.443-1.351-1.745-2.42-2.651-3.619c-0.159,1.521-0.719,3.129-0.411,4.548
				c2.064,9.49,4.167,18.978,6.577,28.384c0.906,3.538,0.099,4.805-3.484,4.32C1345.171,487.493,1344.685,487.65,1343.561,487.782z"
				/>
			<path fill="#EF7380" d="M1343.245,425.448c-0.139,5.549-4.592,9.733-10.179,9.564c-5.594-0.17-9.592-4.505-9.455-10.252
				c0.133-5.55,4.546-9.553,10.326-9.368C1339.238,415.561,1343.38,420.037,1343.245,425.448z"/>
		</g>
	</g>
	<g>
		<g>
			<path fill="#EF7380" d="M761.55,634.576c0,8.269,0.096,16.283-0.079,24.291c-0.036,1.645-0.725,3.591-1.795,4.787
				c-0.701,0.784-3.103,1.099-3.9,0.5c-1.25-0.939-2.454-2.8-2.513-4.316c-0.259-6.683-0.1-13.383-0.096-20.076
				c0.001-0.974,0.225-2.033-0.086-2.897c-0.334-0.929-1.177-1.675-1.798-2.5c-0.593,0.834-1.683,1.658-1.701,2.504
				c-0.142,6.813-0.083,13.629-0.083,20.445c0,0.73,0.043,1.461,0.016,2.19c-0.118,3.192-1.965,5.531-4.382,5.162
				c-2.765-0.421-4.134-2.217-4.112-5.117c0.051-6.815-0.136-13.635,0.069-20.444c0.1-3.316-0.349-5.514-4.378-4.883
				c-0.416,0.065-0.892-0.254-1.86-0.558c1.204-5.47,2.355-10.889,3.595-16.288c1.249-5.437,2.694-10.831,3.803-16.295
				c0.256-1.26-0.504-2.727-0.797-4.099c-0.756,1.059-1.828,2.015-2.214,3.195c-2.034,6.223-3.914,12.497-5.807,18.766
				c-0.691,2.29-1.757,4.373-4.52,3.512c-2.821-0.878-2.822-3.176-2.023-5.694c2.424-7.638,4.648-15.341,7.134-22.958
				c1.71-5.241,5.804-8.074,11.293-8.14c4.137-0.05,8.276-0.05,12.414,0.012c4.829,0.073,9.036,2.899,10.587,7.528
				c2.621,7.821,5.011,15.719,7.434,23.605c0.728,2.37,0.838,4.828-2.164,5.638c-2.845,0.768-3.83-1.425-4.499-3.62
				c-1.84-6.036-3.539-12.116-5.505-18.11c-0.443-1.351-1.745-2.42-2.651-3.619c-0.159,1.521-0.719,3.129-0.411,4.548
				c2.064,9.49,4.167,18.978,6.577,28.384c0.906,3.538,0.099,4.805-3.484,4.32C763.16,634.287,762.675,634.444,761.55,634.576z"/>
			<path fill="#EF7380" d="M761.234,572.242c-0.139,5.549-4.592,9.733-10.179,9.564c-5.594-0.17-9.592-4.505-9.455-10.252
				c0.133-5.549,4.545-9.553,10.326-9.368C757.227,562.355,761.37,566.831,761.234,572.242z"/>
		</g>
	</g>
	<g>
		<g>
			<path fill="#EF7380" d="M824.707,634.806c-6.083-1.151-6.15-1.165-4.829-7.076c2.011-9.001,4.183-17.967,6.121-26.983
				c0.238-1.106-0.536-2.43-0.842-3.654c-0.72,0.95-1.762,1.796-2.106,2.867c-2.043,6.364-3.87,12.797-5.881,19.172
				c-1.097,3.477-4.13,4.765-5.839,2.417c-0.872-1.198-0.958-3.481-0.525-5.029c2.19-7.834,4.412-15.681,7.196-23.314
				c0.868-2.381,3.177-4.806,5.459-5.954c2.74-1.378,6.155-1.412,9.665-2.104c0.123,1.945,0.248,3.008,0.248,4.07
				c0.005,23.253-0.024,46.506,0.017,69.76c0.005,3.094-0.951,5.313-4.276,5.639c-2.691,0.263-4.233-1.829-4.242-5.524
				c-0.017-6.818,0.021-13.635,0.011-20.453C824.883,637.334,824.766,636.028,824.707,634.806z"/>
			<path fill="#EF7380" d="M847.175,597.226c-0.178,1.44-0.509,2.881-0.512,4.321c-0.036,18.731-0.023,37.463-0.028,56.194
				c0,1.094,0.39,2.535-0.154,3.211c-1.181,1.469-2.878,3.545-4.308,3.502c-1.395-0.042-3.121-2.207-3.948-3.825
				c-0.639-1.25-0.107-3.096-0.107-4.677c0.002-21.772,0.001-43.545,0.001-65.317c0-1.449,0-2.898,0-4.271
				c9.28-2.753,16.937,1.666,18.185,10.817c1.065,7.812,1.428,15.72,2.05,23.59c0.183,2.32-0.487,4.161-3.262,4.249
				c-2.729,0.087-3.537-1.746-3.725-3.999c-0.544-6.537-0.976-13.084-1.573-19.616c-0.135-1.479-0.762-2.914-1.163-4.369
				C848.146,597.1,847.66,597.163,847.175,597.226z"/>
			<path fill="#EF7380" d="M835.172,581.805c-5.416,0.037-10.106-4.583-10.043-9.893c0.063-5.312,4.476-9.669,9.792-9.668
				c5.66,0.001,10.225,4.301,10.212,9.619C845.12,577.379,840.722,581.767,835.172,581.805z"/>
		</g>
	</g>
	<g>
		<g>
			<path fill="#EF7380" d="M928.273,597.711c-0.123,1.62-0.351,3.239-0.354,4.859c-0.033,18.618-0.03,37.235-0.039,55.853
				c-0.002,3.911-1.498,5.992-4.354,5.807c-3.562-0.232-4.12-2.701-4.104-5.682c0.054-9.856,0.088-19.714-0.066-29.568
				c-0.018-1.176-1.235-2.334-1.897-3.5c-0.577,1.109-1.641,2.212-1.656,3.33c-0.138,9.976-0.08,19.955-0.106,29.933
				c-0.009,3.713-1.486,5.675-4.241,5.485c-3.494-0.242-4.25-2.693-4.249-5.651c0.006-18.739,0.013-37.479,0.002-56.218
				c-0.001-1.525-0.138-3.051-0.212-4.576c-0.454-0.131-0.908-0.261-1.362-0.392c-0.476,1.193-1.256,2.355-1.379,3.583
				c-0.652,6.532-1.145,13.08-1.683,19.623c-0.202,2.462-0.732,4.935-3.858,4.544c-2.956-0.37-3.206-2.75-2.964-5.31
				c0.675-7.136,1.303-14.277,1.806-21.427c0.514-7.293,5.426-12.165,12.749-12.289c4.987-0.085,9.978-0.064,14.966-0.019
				c6.226,0.056,11.55,4.662,12.203,10.849c0.829,7.856,1.381,15.742,2.064,23.613c0.22,2.538-0.643,4.564-3.35,4.655
				c-2.477,0.083-3.43-1.795-3.598-4.155c-0.447-6.302-0.92-12.604-1.505-18.894c-0.151-1.626-0.754-3.209-1.15-4.813
				C929.383,597.47,928.828,597.59,928.273,597.711z"/>
			<path fill="#EF7380" d="M927.384,572.457c-0.009,5.683-4.238,9.866-9.911,9.802c-5.635-0.063-9.751-4.308-9.728-10.031
				c0.023-5.444,4.481-9.659,10.139-9.584C923.328,562.716,927.392,566.913,927.384,572.457z"/>
		</g>
	</g>
	<g>
		<g>
			<path fill="#EF7380" d="M1011.03,634.576c0,8.269,0.096,16.283-0.079,24.291c-0.036,1.645-0.725,3.591-1.795,4.787
				c-0.701,0.784-3.103,1.099-3.9,0.5c-1.25-0.939-2.454-2.8-2.513-4.316c-0.259-6.683-0.1-13.383-0.096-20.076
				c0.001-0.974,0.225-2.033-0.086-2.897c-0.334-0.929-1.177-1.675-1.798-2.5c-0.593,0.834-1.683,1.658-1.701,2.504
				c-0.142,6.813-0.083,13.629-0.083,20.445c0,0.73,0.043,1.461,0.016,2.19c-0.118,3.192-1.965,5.531-4.382,5.162
				c-2.765-0.421-4.134-2.217-4.112-5.117c0.051-6.815-0.136-13.635,0.069-20.444c0.1-3.316-0.349-5.514-4.378-4.883
				c-0.416,0.065-0.892-0.254-1.86-0.558c1.204-5.47,2.355-10.889,3.595-16.288c1.249-5.437,2.694-10.831,3.803-16.295
				c0.256-1.26-0.504-2.727-0.797-4.099c-0.756,1.059-1.828,2.015-2.214,3.195c-2.034,6.223-3.914,12.497-5.807,18.766
				c-0.691,2.29-1.757,4.373-4.52,3.512c-2.821-0.878-2.822-3.176-2.023-5.694c2.424-7.638,4.648-15.341,7.134-22.958
				c1.71-5.241,5.804-8.074,11.292-8.14c4.137-0.05,8.276-0.05,12.414,0.012c4.829,0.073,9.036,2.899,10.588,7.528
				c2.621,7.821,5.011,15.719,7.434,23.605c0.728,2.37,0.838,4.828-2.164,5.638c-2.845,0.768-3.83-1.425-4.499-3.62
				c-1.84-6.036-3.539-12.116-5.505-18.11c-0.443-1.351-1.745-2.42-2.651-3.619c-0.159,1.521-0.719,3.129-0.411,4.548
				c2.064,9.49,4.167,18.978,6.577,28.384c0.906,3.538,0.099,4.805-3.484,4.32C1012.641,634.287,1012.155,634.444,1011.03,634.576z"
				/>
			<path fill="#EF7380" d="M1010.714,572.242c-0.139,5.549-4.592,9.733-10.179,9.564c-5.594-0.17-9.592-4.505-9.455-10.252
				c0.133-5.549,4.546-9.553,10.326-9.368C1006.707,562.355,1010.85,566.831,1010.714,572.242z"/>
		</g>
	</g>
	<g>
		<g>
			<path fill="#EF7380" d="M1074.187,634.806c-6.083-1.151-6.15-1.165-4.829-7.076c2.011-9.001,4.183-17.967,6.121-26.983
				c0.238-1.106-0.536-2.43-0.842-3.654c-0.72,0.95-1.762,1.796-2.106,2.867c-2.043,6.364-3.87,12.797-5.881,19.172
				c-1.097,3.477-4.13,4.765-5.839,2.417c-0.872-1.198-0.958-3.481-0.525-5.029c2.191-7.834,4.412-15.681,7.196-23.314
				c0.868-2.381,3.177-4.806,5.459-5.954c2.74-1.378,6.155-1.412,9.665-2.104c0.123,1.945,0.248,3.008,0.248,4.07
				c0.005,23.253-0.024,46.506,0.017,69.76c0.005,3.094-0.95,5.313-4.276,5.639c-2.691,0.263-4.233-1.829-4.242-5.524
				c-0.017-6.818,0.021-13.635,0.011-20.453C1074.363,637.334,1074.247,636.028,1074.187,634.806z"/>
			<path fill="#EF7380" d="M1096.655,597.226c-0.178,1.44-0.509,2.881-0.512,4.321c-0.036,18.731-0.023,37.463-0.028,56.194
				c0,1.094,0.39,2.535-0.154,3.211c-1.181,1.469-2.878,3.545-4.308,3.502c-1.395-0.042-3.121-2.207-3.948-3.825
				c-0.639-1.25-0.107-3.096-0.107-4.677c0.002-21.772,0.001-43.545,0.001-65.317c0-1.449,0-2.898,0-4.271
				c9.28-2.753,16.937,1.666,18.185,10.817c1.065,7.812,1.428,15.72,2.05,23.59c0.183,2.32-0.487,4.161-3.262,4.249
				c-2.729,0.087-3.537-1.746-3.725-3.999c-0.544-6.537-0.976-13.084-1.573-19.616c-0.135-1.479-0.762-2.914-1.163-4.369
				C1097.626,597.1,1097.141,597.163,1096.655,597.226z"/>
			<path fill="#EF7380" d="M1084.652,581.805c-5.416,0.037-10.106-4.583-10.043-9.893c0.063-5.312,4.476-9.669,9.792-9.668
				c5.66,0.001,10.225,4.301,10.212,9.619C1094.6,577.379,1090.203,581.767,1084.652,581.805z"/>
		</g>
	</g>
	<g>
		<g>
			<path fill="#7DC184" d="M1323.667,634.806c-6.083-1.151-6.15-1.165-4.829-7.076c2.011-9.001,4.183-17.967,6.121-26.983
				c0.238-1.106-0.536-2.43-0.842-3.654c-0.72,0.95-1.762,1.796-2.106,2.867c-2.043,6.364-3.87,12.797-5.881,19.172
				c-1.097,3.477-4.13,4.765-5.839,2.417c-0.872-1.198-0.958-3.481-0.525-5.029c2.191-7.834,4.412-15.681,7.196-23.314
				c0.868-2.381,3.177-4.806,5.459-5.954c2.74-1.378,6.156-1.412,9.665-2.104c0.123,1.945,0.248,3.008,0.249,4.07
				c0.005,23.253-0.024,46.506,0.017,69.76c0.005,3.094-0.95,5.313-4.276,5.639c-2.691,0.263-4.233-1.829-4.242-5.524
				c-0.017-6.818,0.021-13.635,0.011-20.453C1323.844,637.334,1323.727,636.028,1323.667,634.806z"/>
			<path fill="#7DC184" d="M1346.135,597.226c-0.178,1.44-0.509,2.881-0.512,4.321c-0.036,18.731-0.023,37.463-0.028,56.194
				c0,1.094,0.39,2.535-0.153,3.211c-1.181,1.469-2.878,3.545-4.308,3.502c-1.395-0.042-3.121-2.207-3.948-3.825
				c-0.639-1.25-0.107-3.096-0.107-4.677c0.001-21.772,0.001-43.545,0.001-65.317c0-1.449,0-2.898,0-4.271
				c9.28-2.753,16.937,1.666,18.185,10.817c1.065,7.812,1.428,15.72,2.05,23.59c0.183,2.32-0.487,4.161-3.262,4.249
				c-2.729,0.087-3.537-1.746-3.725-3.999c-0.544-6.537-0.976-13.084-1.573-19.616c-0.135-1.479-0.762-2.914-1.163-4.369
				C1347.106,597.1,1346.621,597.163,1346.135,597.226z"/>
			<path fill="#7DC184" d="M1334.132,581.805c-5.416,0.037-10.106-4.583-10.042-9.893c0.063-5.312,4.476-9.669,9.792-9.668
				c5.66,0.001,10.225,4.301,10.212,9.619C1344.08,577.379,1339.683,581.767,1334.132,581.805z"/>
		</g>
	</g>
	<g>
		<g>
			<path fill="#EF7380" d="M1177.753,597.711c-0.123,1.62-0.351,3.239-0.354,4.859c-0.033,18.618-0.03,37.235-0.039,55.853
				c-0.002,3.911-1.498,5.992-4.354,5.807c-3.562-0.232-4.12-2.701-4.104-5.682c0.054-9.856,0.088-19.714-0.066-29.568
				c-0.018-1.176-1.235-2.334-1.897-3.5c-0.578,1.109-1.641,2.212-1.656,3.33c-0.138,9.976-0.08,19.955-0.106,29.933
				c-0.01,3.713-1.486,5.675-4.241,5.485c-3.494-0.242-4.25-2.693-4.249-5.651c0.006-18.739,0.014-37.479,0.002-56.218
				c-0.001-1.525-0.138-3.051-0.212-4.576c-0.454-0.131-0.908-0.261-1.362-0.392c-0.476,1.193-1.256,2.355-1.379,3.583
				c-0.652,6.532-1.145,13.08-1.683,19.623c-0.202,2.462-0.732,4.935-3.858,4.544c-2.956-0.37-3.206-2.75-2.964-5.31
				c0.675-7.136,1.303-14.277,1.806-21.427c0.514-7.293,5.426-12.165,12.749-12.289c4.987-0.085,9.978-0.064,14.966-0.019
				c6.226,0.056,11.551,4.662,12.203,10.849c0.829,7.856,1.381,15.742,2.064,23.613c0.22,2.538-0.643,4.564-3.35,4.655
				c-2.477,0.083-3.43-1.795-3.598-4.155c-0.447-6.302-0.92-12.604-1.505-18.894c-0.151-1.626-0.754-3.209-1.15-4.813
				C1178.863,597.47,1178.308,597.59,1177.753,597.711z"/>
			<path fill="#EF7380" d="M1176.864,572.457c-0.009,5.683-4.238,9.866-9.911,9.802c-5.635-0.063-9.751-4.308-9.728-10.031
				c0.023-5.444,4.481-9.659,10.139-9.584C1172.809,562.716,1176.872,566.913,1176.864,572.457z"/>
		</g>
	</g>
	<g>
		<g>
			<path fill="#EF7380" d="M1260.51,634.576c0,8.269,0.096,16.283-0.079,24.291c-0.036,1.645-0.725,3.591-1.795,4.787
				c-0.701,0.784-3.103,1.099-3.9,0.5c-1.25-0.939-2.454-2.8-2.513-4.316c-0.259-6.683-0.1-13.383-0.096-20.076
				c0.001-0.974,0.225-2.033-0.086-2.897c-0.334-0.929-1.177-1.675-1.798-2.5c-0.593,0.834-1.683,1.658-1.701,2.504
				c-0.142,6.813-0.083,13.629-0.083,20.445c0,0.73,0.043,1.461,0.016,2.19c-0.118,3.192-1.965,5.531-4.382,5.162
				c-2.765-0.421-4.134-2.217-4.112-5.117c0.051-6.815-0.136-13.635,0.069-20.444c0.1-3.316-0.349-5.514-4.378-4.883
				c-0.416,0.065-0.892-0.254-1.86-0.558c1.204-5.47,2.355-10.889,3.595-16.288c1.249-5.437,2.694-10.831,3.803-16.295
				c0.256-1.26-0.504-2.727-0.797-4.099c-0.756,1.059-1.828,2.015-2.214,3.195c-2.034,6.223-3.914,12.497-5.807,18.766
				c-0.692,2.29-1.757,4.373-4.52,3.512c-2.821-0.878-2.822-3.176-2.023-5.694c2.424-7.638,4.648-15.341,7.134-22.958
				c1.71-5.241,5.804-8.074,11.292-8.14c4.137-0.05,8.276-0.05,12.414,0.012c4.829,0.073,9.036,2.899,10.588,7.528
				c2.621,7.821,5.011,15.719,7.434,23.605c0.728,2.37,0.838,4.828-2.164,5.638c-2.845,0.768-3.83-1.425-4.499-3.62
				c-1.84-6.036-3.539-12.116-5.505-18.11c-0.443-1.351-1.745-2.42-2.651-3.619c-0.159,1.521-0.719,3.129-0.411,4.548
				c2.064,9.49,4.167,18.978,6.577,28.384c0.906,3.538,0.099,4.805-3.484,4.32C1262.121,634.287,1261.635,634.444,1260.51,634.576z"
				/>
			<path fill="#EF7380" d="M1260.195,572.242c-0.139,5.549-4.592,9.733-10.179,9.564c-5.594-0.17-9.592-4.505-9.455-10.252
				c0.133-5.549,4.546-9.553,10.326-9.368C1256.187,562.355,1260.33,566.831,1260.195,572.242z"/>
		</g>
	</g>
	<g>
		<g>
			<path fill="#EF7380" d="M575.227,634.806c-6.083-1.151-6.15-1.165-4.829-7.076c2.011-9.001,4.183-17.967,6.121-26.983
				c0.238-1.106-0.536-2.43-0.842-3.654c-0.72,0.95-1.762,1.796-2.106,2.867c-2.043,6.364-3.87,12.797-5.881,19.172
				c-1.097,3.477-4.13,4.765-5.839,2.417c-0.872-1.198-0.958-3.481-0.525-5.029c2.19-7.834,4.412-15.681,7.196-23.314
				c0.868-2.381,3.177-4.806,5.459-5.954c2.74-1.378,6.155-1.412,9.665-2.104c0.123,1.945,0.248,3.008,0.248,4.07
				c0.005,23.253-0.024,46.506,0.017,69.76c0.005,3.094-0.95,5.313-4.276,5.639c-2.691,0.263-4.233-1.829-4.242-5.524
				c-0.017-6.818,0.021-13.635,0.011-20.453C575.403,637.334,575.286,636.028,575.227,634.806z"/>
			<path fill="#EF7380" d="M597.695,597.226c-0.178,1.441-0.509,2.881-0.512,4.322c-0.036,18.731-0.023,37.463-0.028,56.194
				c0,1.094,0.39,2.535-0.153,3.211c-1.181,1.469-2.878,3.545-4.308,3.502c-1.395-0.042-3.121-2.207-3.948-3.825
				c-0.639-1.25-0.107-3.096-0.107-4.677c0.001-21.772,0.001-43.545,0.001-65.317c0-1.449,0-2.898,0-4.271
				c9.28-2.753,16.937,1.666,18.185,10.817c1.065,7.812,1.428,15.72,2.05,23.59c0.183,2.32-0.487,4.161-3.262,4.249
				c-2.728,0.087-3.537-1.746-3.725-3.999c-0.544-6.537-0.976-13.084-1.573-19.616c-0.135-1.479-0.762-2.914-1.163-4.369
				C598.666,597.1,598.18,597.163,597.695,597.226z"/>
			<path fill="#EF7380" d="M585.692,581.805c-5.416,0.037-10.106-4.583-10.042-9.893c0.063-5.312,4.476-9.669,9.792-9.668
				c5.66,0.001,10.225,4.301,10.212,9.619C595.64,577.379,591.242,581.767,585.692,581.805z"/>
		</g>
	</g>
	<g>
		<g>
			<path fill="#EF7380" d="M678.793,597.711c-0.123,1.62-0.351,3.239-0.354,4.859c-0.033,18.618-0.03,37.235-0.039,55.853
				c-0.002,3.911-1.498,5.992-4.354,5.807c-3.562-0.232-4.12-2.701-4.104-5.682c0.054-9.856,0.088-19.714-0.066-29.568
				c-0.018-1.176-1.235-2.334-1.897-3.5c-0.577,1.109-1.641,2.212-1.656,3.33c-0.138,9.976-0.08,19.955-0.106,29.933
				c-0.01,3.713-1.486,5.675-4.241,5.485c-3.493-0.242-4.25-2.693-4.249-5.651c0.006-18.739,0.013-37.479,0.002-56.218
				c-0.001-1.525-0.138-3.051-0.212-4.576c-0.454-0.131-0.908-0.261-1.362-0.392c-0.476,1.193-1.256,2.355-1.378,3.583
				c-0.652,6.532-1.145,13.08-1.683,19.623c-0.202,2.462-0.732,4.935-3.858,4.544c-2.956-0.37-3.206-2.75-2.964-5.31
				c0.675-7.136,1.303-14.277,1.806-21.427c0.514-7.293,5.426-12.165,12.749-12.289c4.987-0.085,9.977-0.064,14.966-0.019
				c6.226,0.056,11.55,4.662,12.203,10.849c0.829,7.856,1.381,15.742,2.064,23.613c0.22,2.538-0.643,4.564-3.35,4.655
				c-2.477,0.083-3.43-1.795-3.598-4.155c-0.447-6.302-0.92-12.604-1.505-18.894c-0.151-1.626-0.754-3.209-1.15-4.813
				C679.903,597.47,679.348,597.59,678.793,597.711z"/>
			<path fill="#EF7380" d="M677.903,572.457c-0.009,5.683-4.238,9.866-9.911,9.802c-5.635-0.063-9.751-4.308-9.728-10.031
				c0.023-5.444,4.481-9.659,10.139-9.584C673.848,562.716,677.912,566.913,677.903,572.457z"/>
		</g>
	</g>
</g>
</svg>
