<?xml version="1.0" encoding="utf-8"?>
<!-- Generator: Adobe Illustrator 17.0.0, SVG Export Plug-In . SVG Version: 6.00 Build 0)  -->
<!DOCTYPE svg PUBLIC "-//W3C//DTD SVG 1.1//EN" "http://www.w3.org/Graphics/SVG/1.1/DTD/svg11.dtd">
<svg version="1.1" id="Layer_1" xmlns="http://www.w3.org/2000/svg" xmlns:xlink="http://www.w3.org/1999/xlink" x="0px" y="0px"
	 width="512px" height="512px" viewBox="0 0 512 512" enable-background="new 0 0 512 512" xml:space="preserve">
<g>
	<path fill="none" stroke="#162862" stroke-width="15.6747" stroke-miterlimit="10" d="M110.702,256.224
		c0,80.798,65.499,146.297,146.297,146.297"/>
	<path fill="none" stroke="#215D9B" stroke-width="15.6747" stroke-miterlimit="10" d="M257,109.927
		c-80.798,0-146.297,65.499-146.297,146.297"/>
	<path fill="none" stroke="#80CADE" stroke-width="15.6747" stroke-miterlimit="10" d="M403.297,256.224
		c0-80.798-65.499-146.297-146.297-146.297"/>
	<path fill="none" stroke="#43A1C1" stroke-width="15.6747" stroke-miterlimit="10" d="M257,402.521
		c80.798,0,146.297-65.499,146.297-146.297"/>
	<path fill="#82CEE2" d="M269.191,169.162c0,6.974-5.653,12.627-12.627,12.627l0,0c-6.974,0-12.627-5.653-12.627-12.627V12.851
		c0-6.974,5.653-12.627,12.627-12.627l0,0c6.974,0,12.627,5.653,12.627,12.627V169.162z"/>
	<path fill="#162862" d="M269.191,499.597c0,6.974-5.653,12.627-12.627,12.627l0,0c-6.974,0-12.627-5.653-12.627-12.627V343.286
		c0-6.974,5.653-12.627,12.627-12.627l0,0c6.974,0,12.627,5.653,12.627,12.627V499.597z"/>
	<path fill="#46A4CB" d="M343.626,268.851c-6.974,0-12.627-5.653-12.627-12.627l0,0c0-6.974,5.653-12.627,12.627-12.627h156.312
		c6.974,0,12.627,5.653,12.627,12.627l0,0c0,6.974-5.653,12.627-12.627,12.627H343.626z"/>
	<path fill="#215D9E" d="M13.191,268.851c-6.974,0-12.627-5.653-12.627-12.627l0,0c0-6.974,5.653-12.627,12.627-12.627h156.312
		c6.974,0,12.627,5.653,12.627,12.627l0,0c0,6.974-5.653,12.627-12.627,12.627H13.191z"/>
	<circle fill="#162862" cx="257" cy="256.224" r="42.67"/>
	<path fill="#215D9E" d="M464.6,196.137c-19.531-72.041-75.632-129.185-147.078-150.176V18.801
		c85.898,22.276,153.309,90.832,174.032,177.337H464.6z"/>
	<path fill="#82CEE2" d="M462.33,316.31h27.224c-22.813,82.81-88.732,147.937-172.033,169.539v-27.161
		C386.371,438.461,440.971,384.661,462.33,316.31z"/>
	<path fill="#162862" d="M49.399,196.137c19.531-72.041,75.632-129.185,147.078-150.176V18.801
		C110.58,41.077,43.169,109.633,22.445,196.137H49.399z"/>
	<path fill="#46A4CB" d="M51.669,316.31H24.445c22.813,82.81,88.732,147.937,172.033,169.539v-27.161
		C127.628,438.461,73.028,384.661,51.669,316.31z"/>
</g>
</svg>
